<?xml version="1.0" standalone="no"?>
<!DOCTYPE svg PUBLIC "-//W3C//DTD SVG 20010904//EN"
 "http://www.w3.org/TR/2001/REC-SVG-20010904/DTD/svg10.dtd">
<svg version="1.0" xmlns="http://www.w3.org/2000/svg"
 width="500.000000pt" height="500.000000pt" viewBox="0 0 500.000000 500.000000"
 preserveAspectRatio="xMidYMid meet">
<metadata>
Created by potrace 1.14, written by Peter Selinger 2001-2017
</metadata>
<g transform="translate(0.000000,500.000000) scale(0.100000,-0.100000)"
fill="#000000" stroke="none">
<path d="M1540 2981 c0 -6 11 -11 25 -11 17 0 25 -6 26 -17 0 -10 2 -26 4 -37
2 -11 -3 -20 -16 -23 -33 -9 -21 -22 19 -21 98 3 132 -2 152 -22 11 -11 18
-25 15 -32 -2 -7 -7 -31 -10 -53 -14 -97 -26 -165 -31 -179 -4 -11 -19 -16
-43 -16 -48 0 -66 -12 -54 -36 5 -11 9 -34 9 -52 -1 -33 -1 -33 34 -26 19 5
64 8 100 9 101 0 178 -42 311 -173 59 -57 129 -119 155 -138 44 -31 50 -33 61
-18 6 9 16 13 22 9 16 -9 13 -23 -5 -27 -11 -2 -4 -9 20 -21 21 -9 34 -12 30
-6 -3 6 -1 14 5 18 7 5 -7 19 -38 39 -42 26 -52 29 -59 16 -5 -9 -15 -12 -25
-8 -14 5 -15 9 -6 20 6 8 16 11 22 7 6 -4 8 0 4 10 -4 11 6 28 27 49 57 55 86
77 92 67 7 -12 -5 -31 -17 -24 -5 4 -9 2 -9 -4 0 -9 115 -111 125 -111 2 0 2
7 -1 15 -4 8 -2 15 3 15 19 0 21 -13 8 -58 -13 -42 -31 -66 -45 -57 -3 2 -6
-5 -6 -16 0 -10 3 -19 7 -19 4 0 13 -2 21 -5 9 -4 14 3 16 19 2 35 20 76 32
76 5 0 10 7 10 16 0 8 5 12 11 9 6 -4 8 -13 5 -20 -6 -16 21 -29 29 -14 4 5
11 7 16 3 5 -3 7 -9 4 -14 -8 -12 27 -22 38 -11 7 7 2 13 -14 20 -14 5 -55 30
-92 55 -47 32 -67 41 -67 30 0 -8 -5 -12 -11 -9 -6 4 -8 14 -5 22 3 8 -12 37
-33 66 -22 29 -64 107 -94 174 -62 138 -119 223 -203 304 -100 94 -180 141
-311 184 -88 29 -263 46 -263 26z m140 -51 c0 -32 -4 -40 -18 -40 -15 0 -19 8
-20 40 -2 34 1 40 18 40 17 0 20 -7 20 -40z m90 10 c0 -4 -3 -21 -6 -38 -5
-27 -9 -30 -25 -21 -12 6 -17 17 -15 32 3 12 5 27 5 34 1 12 41 6 41 -7z m71
-22 c-1 -5 -1 -21 -1 -37 0 -24 -3 -28 -20 -24 -21 6 -23 14 -14 51 6 20 36
29 35 10z m72 -24 c12 -4 13 -11 5 -35 -9 -27 -27 -37 -41 -23 -5 5 11 64 18
64 2 0 10 -3 18 -6z m82 -44 c3 -5 1 -20 -6 -32 -16 -30 -14 -29 -31 -23 -13
5 -14 12 -5 36 11 29 30 38 42 19z m-128 -28 c74 -28 166 -90 159 -108 -3 -8
-31 -53 -61 -100 -44 -67 -60 -84 -73 -79 -51 20 -106 35 -133 35 -25 0 -24 9
7 180 19 102 20 103 101 72z m197 -20 c2 -4 -4 -19 -14 -32 -14 -19 -22 -22
-30 -14 -9 9 -9 17 -1 33 12 21 35 28 45 13z m53 -58 c1 -5 -4 -18 -12 -28
-21 -28 -42 -7 -25 24 11 21 31 23 37 4z m44 -78 c-15 -15 -24 -17 -32 -9 -17
17 20 56 38 41 12 -9 11 -15 -6 -32z m-75 16 c36 -31 124 -146 124 -163 0 -24
-129 -115 -145 -103 -96 73 -136 104 -138 109 -5 14 109 175 123 175 8 -1 24
-8 36 -18z m134 -53 c0 -6 -7 -17 -16 -26 -24 -25 -43 0 -19 27 17 19 35 19
35 -1z m24 -86 c-27 -20 -42 1 -19 27 17 19 20 19 28 4 7 -13 5 -21 -9 -31z
m-574 -33 c0 -22 -4 -40 -10 -40 -5 0 -10 18 -10 40 0 22 5 40 10 40 6 0 10
-18 10 -40z m38 5 c-1 -19 -6 -35 -10 -35 -4 0 -8 16 -8 35 0 19 5 35 10 35 6
0 10 -16 8 -35z m42 4 c-13 -46 -20 -48 -20 -6 0 25 4 37 14 37 12 0 13 -7 6
-31z m50 27 c0 -1 -5 -17 -11 -35 -14 -41 -30 -40 -18 1 5 18 9 34 9 35 0 2 5
3 10 3 6 0 10 -2 10 -4z m34 -42 c-23 -34 -38 -30 -19 6 9 17 20 28 25 25 6
-4 3 -16 -6 -31z m43 -7 c-23 -35 -42 -34 -21 1 10 17 22 28 26 26 5 -3 3 -15
-5 -27z m413 10 c0 -23 -22 -38 -37 -25 -11 9 -10 13 4 24 23 17 33 17 33 1z
m-360 -15 c0 -5 -9 -17 -20 -27 -16 -14 -20 -15 -20 -4 0 16 19 39 32 39 4 0
8 -4 8 -8z m306 -10 c6 -4 14 -16 18 -28 3 -11 22 -47 41 -79 19 -31 35 -63
35 -70 0 -12 -76 -85 -88 -85 -21 1 -152 151 -152 174 1 10 117 96 130 96 3 0
10 -4 16 -8z m-266 -9 c-1 -11 -26 -43 -34 -43 -10 0 -7 25 6 38 13 13 28 16
28 5z m43 -30 c8 -8 -23 -32 -42 -33 -11 0 -10 5 4 20 19 21 28 24 38 13z
m307 -2 c0 -10 -30 -24 -37 -17 -3 3 -2 9 2 15 8 13 35 15 35 2z m-270 -41 c0
-5 -9 -14 -20 -20 -15 -8 -20 -8 -20 3 0 8 3 17 7 20 10 10 33 8 33 -3z m279
-16 c-6 -7 -15 -11 -21 -8 -5 3 -4 12 3 20 6 7 15 11 21 8 5 -3 4 -12 -3 -20z
m-250 -30 c-13 -16 -39 -19 -39 -4 0 12 32 30 43 23 4 -3 3 -11 -4 -19z m281
-1 c-1 -18 -18 -35 -24 -24 -4 6 -4 16 -1 21 7 12 25 13 25 3z m-246 -50 c-24
-17 -42 0 -24 22 10 12 16 13 27 3 13 -10 12 -14 -3 -25z m52 -34 c8 -14 -18
-31 -30 -19 -9 9 0 30 14 30 5 0 12 -5 16 -11z m254 -14 c0 -8 -4 -15 -9 -15
-13 0 -22 16 -14 24 11 11 23 6 23 -9z m-196 -34 c3 -5 -1 -15 -10 -22 -13
-10 -17 -10 -24 1 -5 8 -6 18 -4 22 7 11 31 10 38 -1z"/>
<path d="M2933 2891 c-254 -69 -444 -282 -445 -501 -1 -61 17 -130 34 -130 7
0 7 4 0 13 -17 21 -7 155 16 215 70 180 265 336 460 368 156 26 280 -3 379
-90 l48 -41 -34 43 c-72 93 -157 132 -296 138 -67 3 -108 -1 -162 -15z"/>
<path d="M3020 2819 c-59 -9 -166 -50 -221 -85 -61 -38 -143 -118 -178 -173
-95 -147 -92 -302 8 -414 25 -28 40 -48 34 -43 -7 4 -13 3 -13 -2 0 -13 27
-23 44 -16 9 3 17 -3 21 -17 5 -14 3 -25 -4 -27 -20 -7 -12 -19 12 -16 33 4
33 4 18 13 -7 5 -11 13 -7 19 4 7 22 5 53 -5 33 -10 75 -13 133 -10 207 11
398 133 486 312 87 176 33 356 -130 431 -78 35 -165 47 -256 33z m109 -59 c94
-27 74 -144 -33 -185 -106 -41 -180 51 -109 136 25 29 73 58 98 59 6 0 25 -4
44 -10z m-219 -125 c40 -37 17 -117 -45 -155 -86 -53 -183 -3 -161 84 6 26 51
74 81 87 30 13 103 4 125 -16z m428 -11 c54 -38 45 -108 -20 -158 -88 -66
-206 -8 -168 83 31 75 131 115 188 75z m-530 -205 c70 -24 64 -122 -10 -167
-64 -38 -114 -36 -157 7 -39 39 -7 116 62 150 48 24 62 25 105 10z m459 -27
c41 -22 45 -86 8 -131 -28 -32 -98 -63 -130 -57 -11 3 -23 5 -27 5 -4 1 -16
11 -28 23 -29 31 -26 79 7 119 46 55 113 71 170 41z m-251 -115 c19 -17 27
-33 26 -55 -2 -94 -144 -161 -207 -97 -87 86 87 232 181 152z"/>
<path d="M2386 2094 c-7 -20 -7 -20 20 -28 15 -5 21 -2 21 11 0 31 -31 43 -41
17z"/>
<path d="M2510 2050 c-8 -5 -13 -10 -10 -11 3 0 15 -2 28 -5 15 -3 22 1 22 11
0 17 -18 19 -40 5z"/>
<path d="M2582 2038 c2 -6 14 -12 26 -13 17 -1 19 1 11 12 -14 16 -42 17 -37
1z"/>
<path d="M2641 2034 c13 -16 39 -19 39 -5 0 5 -11 11 -25 13 -20 4 -23 3 -14
-8z"/>
<path d="M2778 2033 c7 -3 16 -2 19 1 4 3 -2 6 -13 5 -11 0 -14 -3 -6 -6z"/>
</g>
</svg>
