<svg xmlns="http://www.w3.org/2000/svg" xmlns:xlink="http://www.w3.org/1999/xlink" zoomAndPan="magnify" preserveAspectRatio="xMidYMid meet" version="1.0" viewBox="88.33 162.3 198.35 55.56"><defs><g/></defs><g fill="#96031a" fill-opacity="1"><g transform="translate(86.428992, 195.456316)"><g><path d="M 8.9375 0.375 C 6.457031 0.375 4.6875 -0.148438 3.625 -1.203125 C 2.570312 -2.265625 2.019531 -4.007812 1.96875 -6.4375 C 1.9375 -8.488281 1.914062 -10.660156 1.90625 -12.953125 C 1.894531 -15.253906 1.894531 -17.554688 1.90625 -19.859375 C 1.914062 -22.160156 1.9375 -24.335938 1.96875 -26.390625 C 2 -28.515625 2.5625 -30.171875 3.65625 -31.359375 C 4.75 -32.554688 6.507812 -33.15625 8.9375 -33.15625 C 11.351562 -33.15625 13.097656 -32.628906 14.171875 -31.578125 C 15.253906 -30.523438 15.820312 -28.796875 15.875 -26.390625 C 15.90625 -25.648438 15.921875 -24.742188 15.921875 -23.671875 C 15.921875 -22.609375 15.90625 -21.707031 15.875 -20.96875 L 11.453125 -20.96875 C 11.453125 -21.875 11.457031 -22.898438 11.46875 -24.046875 C 11.476562 -25.191406 11.472656 -26.226562 11.453125 -27.15625 C 11.421875 -28.71875 10.582031 -29.5 8.9375 -29.5 C 7.300781 -29.5 6.457031 -28.71875 6.40625 -27.15625 C 6.320312 -23.6875 6.28125 -20.101562 6.28125 -16.40625 C 6.28125 -12.71875 6.320312 -9.132812 6.40625 -5.65625 C 6.457031 -4.070312 7.300781 -3.28125 8.9375 -3.28125 C 10.695312 -3.28125 11.585938 -4.070312 11.609375 -5.65625 C 11.640625 -6.613281 11.65625 -7.6875 11.65625 -8.875 C 11.65625 -10.070312 11.640625 -11.132812 11.609375 -12.0625 L 16.046875 -12.0625 C 16.066406 -11.15625 16.078125 -10.222656 16.078125 -9.265625 C 16.078125 -8.316406 16.066406 -7.375 16.046875 -6.4375 C 15.992188 -4.007812 15.410156 -2.265625 14.296875 -1.203125 C 13.191406 -0.148438 11.40625 0.375 8.9375 0.375 Z M 8.9375 0.375 "/></g></g></g><g fill="#96031a" fill-opacity="1"><g transform="translate(105.829948, 195.456316)"><g><path d="M 1.890625 0 L 1.890625 -32.828125 L 6.359375 -32.828125 L 6.359375 0 Z M 1.890625 0 "/></g></g></g><g fill="#96031a" fill-opacity="1"><g transform="translate(116.166451, 195.456316)"><g><path d="M 1.890625 0 L 1.890625 -32.828125 L 8.78125 -32.828125 L 10.921875 -22.40625 L 13.578125 -3.9375 L 14.53125 -3.9375 L 13.75 -20.015625 L 13.421875 -32.828125 L 17.71875 -32.828125 L 17.71875 0 L 10.546875 0 L 8.328125 -11.25 L 6.15625 -28.921875 L 5.125 -28.921875 L 5.828125 -12.515625 L 6.203125 0 Z M 1.890625 0 "/></g></g></g><g fill="#96031a" fill-opacity="1"><g transform="translate(137.864282, 195.456316)"><g><path d="M 1.890625 0 L 1.890625 -32.828125 L 13.625 -32.828125 L 13.625 -28.890625 L 6.359375 -28.890625 L 6.359375 -18.59375 L 13.21875 -18.59375 L 13.21875 -14.640625 L 6.359375 -14.640625 L 6.359375 -3.9375 L 13.625 -3.9375 L 13.625 0 Z M 1.890625 0 "/></g></g></g><g fill="#96031a" fill-opacity="1"><g transform="translate(154.681253, 195.456316)"><g><path d="M 1.890625 0 L 1.890625 -32.828125 L 9.484375 -32.828125 L 11.6875 -19.90625 L 12.765625 -3.984375 L 13.65625 -3.984375 L 14.640625 -19.90625 L 16.90625 -32.828125 L 24.453125 -32.828125 L 24.453125 0 L 20.015625 0 L 20.015625 -9.921875 L 20.796875 -28.890625 L 19.859375 -28.890625 L 17.8125 -9.5625 L 15.875 -0.078125 L 10.46875 -0.078125 L 8.578125 -9.5625 L 6.53125 -28.890625 L 5.578125 -28.890625 L 6.359375 -9.8125 L 6.359375 0 Z M 1.890625 0 "/></g></g></g><g fill="#96031a" fill-opacity="1"><g transform="translate(183.105651, 195.456316)"><g><path d="M 0.9375 0 L 4.96875 -32.828125 L 12.34375 -32.828125 L 16.375 0 L 11.859375 0 L 11.078125 -8.203125 L 6.28125 -8.203125 L 5.5 0 Z M 6.6875 -12.109375 L 10.625 -12.109375 L 9.921875 -19.328125 L 9.234375 -28.890625 L 8.078125 -28.890625 L 7.390625 -19.328125 Z M 6.6875 -12.109375 "/></g></g></g><g fill="#96031a" fill-opacity="1"><g transform="translate(202.383566, 195.456316)"><g><path d="M 5.703125 0 L 5.703125 -28.890625 L 0.9375 -28.890625 L 0.9375 -32.828125 L 14.859375 -32.828125 L 14.859375 -28.890625 L 10.140625 -28.890625 L 10.140625 0 Z M 5.703125 0 "/></g></g></g><g fill="#96031a" fill-opacity="1"><g transform="translate(220.26695, 195.456316)"><g><path d="M 1.890625 0 L 1.890625 -32.828125 L 8.375 -32.828125 C 10.800781 -32.828125 12.566406 -32.304688 13.671875 -31.265625 C 14.785156 -30.222656 15.382812 -28.523438 15.46875 -26.171875 C 15.519531 -24.671875 15.546875 -23.34375 15.546875 -22.1875 C 15.546875 -21.039062 15.519531 -19.800781 15.46875 -18.46875 C 15.363281 -15.40625 14.351562 -13.4375 12.4375 -12.5625 L 16 0 L 11.28125 0 L 8.25 -11.8125 L 6.359375 -11.8125 L 6.359375 0 Z M 6.359375 -15.75 L 8.328125 -15.75 C 10.054688 -15.75 10.957031 -16.570312 11.03125 -18.21875 C 11.175781 -20.957031 11.175781 -23.679688 11.03125 -26.390625 C 10.957031 -28.054688 10.070312 -28.890625 8.375 -28.890625 L 6.359375 -28.890625 Z M 6.359375 -15.75 "/></g></g></g><g fill="#96031a" fill-opacity="1"><g transform="translate(239.339786, 195.456316)"><g><path d="M 0.9375 0 L 4.96875 -32.828125 L 12.34375 -32.828125 L 16.375 0 L 11.859375 0 L 11.078125 -8.203125 L 6.28125 -8.203125 L 5.5 0 Z M 6.6875 -12.109375 L 10.625 -12.109375 L 9.921875 -19.328125 L 9.234375 -28.890625 L 8.078125 -28.890625 L 7.390625 -19.328125 Z M 6.6875 -12.109375 "/></g></g></g><g fill="#96031a" fill-opacity="1"><g transform="translate(258.617701, 195.456316)"><g><path d="M 1.890625 0 L 1.890625 -32.828125 L 6.359375 -32.828125 L 6.359375 0 Z M 1.890625 0 "/></g></g></g><g fill="#96031a" fill-opacity="1"><g transform="translate(268.95421, 195.456316)"><g><path d="M 1.890625 0 L 1.890625 -32.828125 L 8.78125 -32.828125 L 10.921875 -22.40625 L 13.578125 -3.9375 L 14.53125 -3.9375 L 13.75 -20.015625 L 13.421875 -32.828125 L 17.71875 -32.828125 L 17.71875 0 L 10.546875 0 L 8.328125 -11.25 L 6.15625 -28.921875 L 5.125 -28.921875 L 5.828125 -12.515625 L 6.203125 0 Z M 1.890625 0 "/></g></g></g><g fill="#ffc300" fill-opacity="1"><g transform="translate(136.481831, 217.739107)"><g><path d="M 0.859375 -11.046875 L 3.59375 -11.046875 C 4.550781 -11.046875 5.242188 -10.785156 5.671875 -10.265625 C 6.109375 -9.753906 6.328125 -9 6.328125 -8 C 6.328125 -7.09375 6.09375 -6.390625 5.625 -5.890625 C 5.164062 -5.390625 4.492188 -5.140625 3.609375 -5.140625 L 2.40625 -5.140625 L 2.40625 0 L 0.859375 0 Z M 3.109375 -6.25 C 3.566406 -6.25 3.921875 -6.296875 4.171875 -6.390625 C 4.421875 -6.492188 4.597656 -6.664062 4.703125 -6.90625 C 4.816406 -7.15625 4.875 -7.515625 4.875 -7.984375 C 4.875 -8.546875 4.832031 -8.957031 4.75 -9.21875 C 4.664062 -9.476562 4.503906 -9.660156 4.265625 -9.765625 C 4.023438 -9.878906 3.644531 -9.9375 3.125 -9.9375 L 2.40625 -9.9375 L 2.40625 -6.25 Z M 3.109375 -6.25 "/></g></g></g><g fill="#ffc300" fill-opacity="1"><g transform="translate(146.686252, 217.739107)"><g><path d="M 3.6875 0.125 C 2.601562 0.125 1.828125 -0.179688 1.359375 -0.796875 C 0.890625 -1.410156 0.65625 -2.300781 0.65625 -3.46875 L 0.65625 -7.65625 C 0.65625 -8.800781 0.890625 -9.664062 1.359375 -10.25 C 1.835938 -10.84375 2.613281 -11.140625 3.6875 -11.140625 C 4.757812 -11.140625 5.53125 -10.84375 6 -10.25 C 6.46875 -9.65625 6.703125 -8.789062 6.703125 -7.65625 L 6.703125 -3.453125 C 6.703125 -2.304688 6.460938 -1.421875 5.984375 -0.796875 C 5.515625 -0.179688 4.75 0.125 3.6875 0.125 Z M 3.6875 -1.09375 C 4.257812 -1.09375 4.644531 -1.257812 4.84375 -1.59375 C 5.039062 -1.925781 5.140625 -2.4375 5.140625 -3.125 L 5.140625 -7.96875 C 5.140625 -8.632812 5.039062 -9.128906 4.84375 -9.453125 C 4.644531 -9.773438 4.257812 -9.9375 3.6875 -9.9375 C 3.101562 -9.9375 2.707031 -9.773438 2.5 -9.453125 C 2.300781 -9.128906 2.203125 -8.632812 2.203125 -7.96875 L 2.203125 -3.125 C 2.203125 -2.4375 2.300781 -1.925781 2.5 -1.59375 C 2.707031 -1.257812 3.101562 -1.09375 3.6875 -1.09375 Z M 3.6875 -1.09375 "/></g></g></g><g fill="#ffc300" fill-opacity="1"><g transform="translate(157.695468, 217.739107)"><g><path d="M 0.859375 -11.046875 L 3.59375 -11.046875 C 4.550781 -11.046875 5.242188 -10.785156 5.671875 -10.265625 C 6.109375 -9.753906 6.328125 -9 6.328125 -8 C 6.328125 -7.09375 6.09375 -6.390625 5.625 -5.890625 C 5.164062 -5.390625 4.492188 -5.140625 3.609375 -5.140625 L 2.40625 -5.140625 L 2.40625 0 L 0.859375 0 Z M 3.109375 -6.25 C 3.566406 -6.25 3.921875 -6.296875 4.171875 -6.390625 C 4.421875 -6.492188 4.597656 -6.664062 4.703125 -6.90625 C 4.816406 -7.15625 4.875 -7.515625 4.875 -7.984375 C 4.875 -8.546875 4.832031 -8.957031 4.75 -9.21875 C 4.664062 -9.476562 4.503906 -9.660156 4.265625 -9.765625 C 4.023438 -9.878906 3.644531 -9.9375 3.125 -9.9375 L 2.40625 -9.9375 L 2.40625 -6.25 Z M 3.109375 -6.25 "/></g></g></g><g fill="#ffc300" fill-opacity="1"><g transform="translate(167.899889, 217.739107)"><g/></g></g><g fill="#ffc300" fill-opacity="1"><g transform="translate(174.680513, 217.739107)"><g><path d="M 2.078125 -9.90625 L 0.203125 -9.90625 L 0.203125 -11.046875 L 5.421875 -11.046875 L 5.421875 -9.90625 L 3.609375 -9.90625 L 3.609375 0 L 2.078125 0 Z M 2.078125 -9.90625 "/></g></g></g><g fill="#ffc300" fill-opacity="1"><g transform="translate(183.971009, 217.739107)"><g><path d="M 0.859375 -11.046875 L 2.40625 -11.046875 L 2.40625 -6.28125 L 5.234375 -6.28125 L 5.234375 -11.046875 L 6.78125 -11.046875 L 6.78125 0 L 5.234375 0 L 5.234375 -5.171875 L 2.40625 -5.171875 L 2.40625 0 L 0.859375 0 Z M 0.859375 -11.046875 "/></g></g></g><g fill="#ffc300" fill-opacity="1"><g transform="translate(195.280323, 217.739107)"><g><path d="M 0.859375 -11.046875 L 5.140625 -11.046875 L 5.140625 -9.90625 L 2.40625 -9.90625 L 2.40625 -6.25 L 4.625 -6.25 L 4.625 -5.15625 L 2.40625 -5.15625 L 2.40625 -1.109375 L 5.171875 -1.109375 L 5.171875 0 L 0.859375 0 Z M 0.859375 -11.046875 "/></g></g></g><g fill="#ffc300" fill-opacity="1"><g transform="translate(204.488983, 217.739107)"><g/></g></g><g fill="#ffc300" fill-opacity="1"><g transform="translate(211.269607, 217.739107)"><g><path d="M 0.859375 -11.046875 L 5.125 -11.046875 L 5.125 -9.9375 L 2.40625 -9.9375 L 2.40625 -6.265625 L 4.515625 -6.265625 L 4.515625 -5.171875 L 2.40625 -5.171875 L 2.40625 0 L 0.859375 0 Z M 0.859375 -11.046875 "/></g></g></g><g fill="#ffc300" fill-opacity="1"><g transform="translate(220.260016, 217.739107)"><g><path d="M 3.703125 0.125 C 2.929688 0.125 2.328125 -0.03125 1.890625 -0.34375 C 1.460938 -0.65625 1.164062 -1.085938 1 -1.640625 C 0.84375 -2.191406 0.765625 -2.882812 0.765625 -3.71875 L 0.765625 -11.046875 L 2.234375 -11.046875 L 2.234375 -3.65625 C 2.234375 -2.820312 2.332031 -2.1875 2.53125 -1.75 C 2.726562 -1.3125 3.117188 -1.09375 3.703125 -1.09375 C 4.296875 -1.09375 4.691406 -1.3125 4.890625 -1.75 C 5.085938 -2.1875 5.1875 -2.820312 5.1875 -3.65625 L 5.1875 -11.046875 L 6.640625 -11.046875 L 6.640625 -3.71875 C 6.640625 -2.882812 6.554688 -2.191406 6.390625 -1.640625 C 6.234375 -1.085938 5.941406 -0.65625 5.515625 -0.34375 C 5.085938 -0.03125 4.484375 0.125 3.703125 0.125 Z M 3.703125 0.125 "/></g></g></g><g fill="#ffc300" fill-opacity="1"><g transform="translate(231.323797, 217.739107)"><g><path d="M 0.859375 -11.046875 L 1.90625 -11.046875 L 5.046875 -3.703125 L 5.046875 -11.046875 L 6.328125 -11.046875 L 6.328125 0 L 5.34375 0 L 2.171875 -7.546875 L 2.171875 0 L 0.859375 0 Z M 0.859375 -11.046875 "/></g></g></g></svg>