<svg xmlns="http://www.w3.org/2000/svg" xmlns:xlink="http://www.w3.org/1999/xlink" zoomAndPan="magnify" preserveAspectRatio="xMidYMid meet" version="1.0" viewBox="99.2 96.55 176.58 156.92"><defs><clipPath id="c39278af2d"><path d="M 186 156 L 257 156 L 257 209 L 186 209 Z M 186 156 " clip-rule="nonzero"/></clipPath><clipPath id="056c025778"><path d="M 228.050781 253.445312 L 99.195312 178.136719 L 146.878906 96.550781 L 275.734375 171.859375 Z M 228.050781 253.445312 " clip-rule="nonzero"/></clipPath><clipPath id="78a6ac1efe"><path d="M 228.09375 253.472656 L 99.238281 178.164062 L 146.921875 96.574219 L 275.777344 171.886719 Z M 228.09375 253.472656 " clip-rule="nonzero"/></clipPath><clipPath id="0cbe36bc09"><path d="M 122 186 L 123 186 L 123 187 L 122 187 Z M 122 186 " clip-rule="nonzero"/></clipPath><clipPath id="73aaeff34c"><path d="M 228.050781 253.445312 L 99.195312 178.136719 L 146.878906 96.550781 L 275.734375 171.859375 Z M 228.050781 253.445312 " clip-rule="nonzero"/></clipPath><clipPath id="67305acaca"><path d="M 228.09375 253.472656 L 99.238281 178.164062 L 146.921875 96.574219 L 275.777344 171.886719 Z M 228.09375 253.472656 " clip-rule="nonzero"/></clipPath><clipPath id="e77d67b40f"><path d="M 122 187 L 123 187 L 123 188 L 122 188 Z M 122 187 " clip-rule="nonzero"/></clipPath><clipPath id="a3e707e9e3"><path d="M 228.050781 253.445312 L 99.195312 178.136719 L 146.878906 96.550781 L 275.734375 171.859375 Z M 228.050781 253.445312 " clip-rule="nonzero"/></clipPath><clipPath id="bbf645f815"><path d="M 228.09375 253.472656 L 99.238281 178.164062 L 146.921875 96.574219 L 275.777344 171.886719 Z M 228.09375 253.472656 " clip-rule="nonzero"/></clipPath><clipPath id="4069d10492"><path d="M 121 186 L 123 186 L 123 187 L 121 187 Z M 121 186 " clip-rule="nonzero"/></clipPath><clipPath id="aab04d1b68"><path d="M 228.050781 253.445312 L 99.195312 178.136719 L 146.878906 96.550781 L 275.734375 171.859375 Z M 228.050781 253.445312 " clip-rule="nonzero"/></clipPath><clipPath id="dad2424757"><path d="M 228.09375 253.472656 L 99.238281 178.164062 L 146.921875 96.574219 L 275.777344 171.886719 Z M 228.09375 253.472656 " clip-rule="nonzero"/></clipPath><clipPath id="5ccb148d12"><path d="M 122 187 L 123 187 L 123 188 L 122 188 Z M 122 187 " clip-rule="nonzero"/></clipPath><clipPath id="f074fee5fa"><path d="M 228.050781 253.445312 L 99.195312 178.136719 L 146.878906 96.550781 L 275.734375 171.859375 Z M 228.050781 253.445312 " clip-rule="nonzero"/></clipPath><clipPath id="2914d22c6b"><path d="M 228.09375 253.472656 L 99.238281 178.164062 L 146.921875 96.574219 L 275.777344 171.886719 Z M 228.09375 253.472656 " clip-rule="nonzero"/></clipPath><clipPath id="3621a2a807"><path d="M 122 186 L 123 186 L 123 188 L 122 188 Z M 122 186 " clip-rule="nonzero"/></clipPath><clipPath id="6f85027528"><path d="M 228.050781 253.445312 L 99.195312 178.136719 L 146.878906 96.550781 L 275.734375 171.859375 Z M 228.050781 253.445312 " clip-rule="nonzero"/></clipPath><clipPath id="4501144ec6"><path d="M 228.09375 253.472656 L 99.238281 178.164062 L 146.921875 96.574219 L 275.777344 171.886719 Z M 228.09375 253.472656 " clip-rule="nonzero"/></clipPath><clipPath id="afbb400f18"><path d="M 122 191 L 123 191 L 123 192 L 122 192 Z M 122 191 " clip-rule="nonzero"/></clipPath><clipPath id="c57bca97e3"><path d="M 228.050781 253.445312 L 99.195312 178.136719 L 146.878906 96.550781 L 275.734375 171.859375 Z M 228.050781 253.445312 " clip-rule="nonzero"/></clipPath><clipPath id="9312f888e8"><path d="M 228.09375 253.472656 L 99.238281 178.164062 L 146.921875 96.574219 L 275.777344 171.886719 Z M 228.09375 253.472656 " clip-rule="nonzero"/></clipPath><clipPath id="2ff7b705be"><path d="M 121 185 L 122 185 L 122 187 L 121 187 Z M 121 185 " clip-rule="nonzero"/></clipPath><clipPath id="b9e18c8a96"><path d="M 228.050781 253.445312 L 99.195312 178.136719 L 146.878906 96.550781 L 275.734375 171.859375 Z M 228.050781 253.445312 " clip-rule="nonzero"/></clipPath><clipPath id="cc2d820582"><path d="M 228.09375 253.472656 L 99.238281 178.164062 L 146.921875 96.574219 L 275.777344 171.886719 Z M 228.09375 253.472656 " clip-rule="nonzero"/></clipPath><clipPath id="2e74b1fffb"><path d="M 122 191 L 124 191 L 124 193 L 122 193 Z M 122 191 " clip-rule="nonzero"/></clipPath><clipPath id="d6c8007de5"><path d="M 228.050781 253.445312 L 99.195312 178.136719 L 146.878906 96.550781 L 275.734375 171.859375 Z M 228.050781 253.445312 " clip-rule="nonzero"/></clipPath><clipPath id="dba8cd7875"><path d="M 228.09375 253.472656 L 99.238281 178.164062 L 146.921875 96.574219 L 275.777344 171.886719 Z M 228.09375 253.472656 " clip-rule="nonzero"/></clipPath><clipPath id="8db142b06a"><path d="M 122 187 L 123 187 L 123 188 L 122 188 Z M 122 187 " clip-rule="nonzero"/></clipPath><clipPath id="9d14c9136b"><path d="M 228.050781 253.445312 L 99.195312 178.136719 L 146.878906 96.550781 L 275.734375 171.859375 Z M 228.050781 253.445312 " clip-rule="nonzero"/></clipPath><clipPath id="5c8a2a78c0"><path d="M 228.09375 253.472656 L 99.238281 178.164062 L 146.921875 96.574219 L 275.777344 171.886719 Z M 228.09375 253.472656 " clip-rule="nonzero"/></clipPath><clipPath id="34ca2883c8"><path d="M 122 189 L 123 189 L 123 191 L 122 191 Z M 122 189 " clip-rule="nonzero"/></clipPath><clipPath id="2b1c6b59ca"><path d="M 228.050781 253.445312 L 99.195312 178.136719 L 146.878906 96.550781 L 275.734375 171.859375 Z M 228.050781 253.445312 " clip-rule="nonzero"/></clipPath><clipPath id="79510a8b7a"><path d="M 228.09375 253.472656 L 99.238281 178.164062 L 146.921875 96.574219 L 275.777344 171.886719 Z M 228.09375 253.472656 " clip-rule="nonzero"/></clipPath><clipPath id="5a71f9d9fb"><path d="M 121 186 L 123 186 L 123 190 L 121 190 Z M 121 186 " clip-rule="nonzero"/></clipPath><clipPath id="ac14739775"><path d="M 228.050781 253.445312 L 99.195312 178.136719 L 146.878906 96.550781 L 275.734375 171.859375 Z M 228.050781 253.445312 " clip-rule="nonzero"/></clipPath><clipPath id="9381c4418c"><path d="M 228.09375 253.472656 L 99.238281 178.164062 L 146.921875 96.574219 L 275.777344 171.886719 Z M 228.09375 253.472656 " clip-rule="nonzero"/></clipPath><clipPath id="b284fdce61"><path d="M 122 189 L 123 189 L 123 190 L 122 190 Z M 122 189 " clip-rule="nonzero"/></clipPath><clipPath id="38c3b611ef"><path d="M 228.050781 253.445312 L 99.195312 178.136719 L 146.878906 96.550781 L 275.734375 171.859375 Z M 228.050781 253.445312 " clip-rule="nonzero"/></clipPath><clipPath id="8bab51d89e"><path d="M 228.09375 253.472656 L 99.238281 178.164062 L 146.921875 96.574219 L 275.777344 171.886719 Z M 228.09375 253.472656 " clip-rule="nonzero"/></clipPath><clipPath id="37105e3214"><path d="M 122 189 L 123 189 L 123 192 L 122 192 Z M 122 189 " clip-rule="nonzero"/></clipPath><clipPath id="d68626ada6"><path d="M 228.050781 253.445312 L 99.195312 178.136719 L 146.878906 96.550781 L 275.734375 171.859375 Z M 228.050781 253.445312 " clip-rule="nonzero"/></clipPath><clipPath id="0770591e7b"><path d="M 228.09375 253.472656 L 99.238281 178.164062 L 146.921875 96.574219 L 275.777344 171.886719 Z M 228.09375 253.472656 " clip-rule="nonzero"/></clipPath><clipPath id="404e4d7dee"><path d="M 115 150 L 259 150 L 259 224 L 115 224 Z M 115 150 " clip-rule="nonzero"/></clipPath><clipPath id="80c937d4b0"><path d="M 228.050781 253.445312 L 99.195312 178.136719 L 146.878906 96.550781 L 275.734375 171.859375 Z M 228.050781 253.445312 " clip-rule="nonzero"/></clipPath><clipPath id="a53eae2193"><path d="M 228.09375 253.472656 L 99.238281 178.164062 L 146.921875 96.574219 L 275.777344 171.886719 Z M 228.09375 253.472656 " clip-rule="nonzero"/></clipPath><clipPath id="6fdcaf6dca"><path d="M 122 188 L 123 188 L 123 190 L 122 190 Z M 122 188 " clip-rule="nonzero"/></clipPath><clipPath id="a89f2585a8"><path d="M 228.050781 253.445312 L 99.195312 178.136719 L 146.878906 96.550781 L 275.734375 171.859375 Z M 228.050781 253.445312 " clip-rule="nonzero"/></clipPath><clipPath id="83902493f7"><path d="M 228.09375 253.472656 L 99.238281 178.164062 L 146.921875 96.574219 L 275.777344 171.886719 Z M 228.09375 253.472656 " clip-rule="nonzero"/></clipPath><clipPath id="cdda20d95e"><path d="M 122 188 L 123 188 L 123 189 L 122 189 Z M 122 188 " clip-rule="nonzero"/></clipPath><clipPath id="d1977a6fd3"><path d="M 228.050781 253.445312 L 99.195312 178.136719 L 146.878906 96.550781 L 275.734375 171.859375 Z M 228.050781 253.445312 " clip-rule="nonzero"/></clipPath><clipPath id="4381565613"><path d="M 228.09375 253.472656 L 99.238281 178.164062 L 146.921875 96.574219 L 275.777344 171.886719 Z M 228.09375 253.472656 " clip-rule="nonzero"/></clipPath><clipPath id="685ce376ec"><path d="M 121 186 L 123 186 L 123 187 L 121 187 Z M 121 186 " clip-rule="nonzero"/></clipPath><clipPath id="5aa10dcfc7"><path d="M 228.050781 253.445312 L 99.195312 178.136719 L 146.878906 96.550781 L 275.734375 171.859375 Z M 228.050781 253.445312 " clip-rule="nonzero"/></clipPath><clipPath id="e6e142a018"><path d="M 228.09375 253.472656 L 99.238281 178.164062 L 146.921875 96.574219 L 275.777344 171.886719 Z M 228.09375 253.472656 " clip-rule="nonzero"/></clipPath><clipPath id="90c2258336"><path d="M 122 190 L 123 190 L 123 191 L 122 191 Z M 122 190 " clip-rule="nonzero"/></clipPath><clipPath id="2d790bc91b"><path d="M 228.050781 253.445312 L 99.195312 178.136719 L 146.878906 96.550781 L 275.734375 171.859375 Z M 228.050781 253.445312 " clip-rule="nonzero"/></clipPath><clipPath id="cce79f4864"><path d="M 228.09375 253.472656 L 99.238281 178.164062 L 146.921875 96.574219 L 275.777344 171.886719 Z M 228.09375 253.472656 " clip-rule="nonzero"/></clipPath><clipPath id="4902765d2b"><path d="M 122 187 L 123 187 L 123 189 L 122 189 Z M 122 187 " clip-rule="nonzero"/></clipPath><clipPath id="a9d2887cc8"><path d="M 228.050781 253.445312 L 99.195312 178.136719 L 146.878906 96.550781 L 275.734375 171.859375 Z M 228.050781 253.445312 " clip-rule="nonzero"/></clipPath><clipPath id="bc4b86a395"><path d="M 228.09375 253.472656 L 99.238281 178.164062 L 146.921875 96.574219 L 275.777344 171.886719 Z M 228.09375 253.472656 " clip-rule="nonzero"/></clipPath></defs><g clip-path="url(#c39278af2d)"><g clip-path="url(#056c025778)"><g clip-path="url(#78a6ac1efe)"><path fill="#96031a" d="M 189.453125 207.109375 C 189.753906 207.644531 190.078125 208.164062 190.421875 208.667969 C 184.019531 194.773438 192.519531 176.117188 210.148438 166.167969 C 227.777344 156.214844 248.117188 158.601562 256.667969 171.277344 C 256.414062 170.726562 256.140625 170.179688 255.839844 169.640625 C 247.941406 155.613281 226.683594 152.625 208.351562 162.972656 C 190.019531 173.316406 181.558594 193.078125 189.453125 207.109375 " fill-opacity="1" fill-rule="nonzero"/></g></g></g><g clip-path="url(#0cbe36bc09)"><g clip-path="url(#73aaeff34c)"><g clip-path="url(#67305acaca)"><path fill="#96031a" d="M 122.042969 186.695312 C 122.050781 186.726562 122.054688 186.757812 122.058594 186.789062 C 122.054688 186.757812 122.050781 186.726562 122.042969 186.695312 " fill-opacity="1" fill-rule="nonzero"/></g></g></g><g clip-path="url(#e77d67b40f)"><g clip-path="url(#a3e707e9e3)"><g clip-path="url(#bbf645f815)"><path fill="#96031a" d="M 122.128906 187.199219 C 122.140625 187.265625 122.15625 187.335938 122.167969 187.410156 C 122.15625 187.335938 122.140625 187.265625 122.128906 187.199219 " fill-opacity="1" fill-rule="nonzero"/></g></g></g><g clip-path="url(#4069d10492)"><g clip-path="url(#aab04d1b68)"><g clip-path="url(#dad2424757)"><path fill="#96031a" d="M 122.039062 186.679688 C 122.015625 186.535156 121.988281 186.390625 121.964844 186.253906 L 121.953125 186.203125 C 121.957031 186.207031 121.957031 186.210938 121.957031 186.214844 C 121.984375 186.375 122.015625 186.535156 122.042969 186.695312 C 122.042969 186.691406 122.042969 186.683594 122.039062 186.679688 " fill-opacity="1" fill-rule="nonzero"/></g></g></g><g clip-path="url(#5ccb148d12)"><g clip-path="url(#f074fee5fa)"><g clip-path="url(#2914d22c6b)"><path fill="#96031a" d="M 122.167969 187.410156 C 122.183594 187.515625 122.203125 187.625 122.222656 187.734375 C 122.203125 187.625 122.183594 187.515625 122.167969 187.410156 " fill-opacity="1" fill-rule="nonzero"/></g></g></g><g clip-path="url(#3621a2a807)"><g clip-path="url(#6f85027528)"><g clip-path="url(#4501144ec6)"><path fill="#96031a" d="M 122.058594 186.789062 C 122.082031 186.925781 122.105469 187.058594 122.128906 187.199219 C 122.105469 187.058594 122.082031 186.921875 122.058594 186.789062 " fill-opacity="1" fill-rule="nonzero"/></g></g></g><g clip-path="url(#afbb400f18)"><g clip-path="url(#c57bca97e3)"><g clip-path="url(#9312f888e8)"><path fill="#96031a" d="M 122.933594 191.984375 L 122.9375 191.984375 L 122.949219 191.980469 C 122.953125 191.980469 122.957031 191.980469 122.960938 191.980469 L 122.925781 191.808594 C 122.917969 191.816406 122.910156 191.820312 122.90625 191.832031 C 122.914062 191.882812 122.921875 191.929688 122.933594 191.984375 " fill-opacity="1" fill-rule="nonzero"/></g></g></g><g clip-path="url(#2ff7b705be)"><g clip-path="url(#b9e18c8a96)"><g clip-path="url(#cc2d820582)"><path fill="#96031a" d="M 121.949219 186.167969 C 121.949219 186.175781 121.953125 186.183594 121.953125 186.191406 C 121.871094 185.71875 121.789062 185.234375 121.949219 186.167969 " fill-opacity="1" fill-rule="nonzero"/></g></g></g><g clip-path="url(#2e74b1fffb)"><g clip-path="url(#d6c8007de5)"><g clip-path="url(#dba8cd7875)"><path fill="#96031a" d="M 123.042969 191.996094 C 123.054688 191.988281 123.066406 191.976562 123.082031 191.96875 C 123.09375 191.960938 123.128906 191.945312 123.109375 191.953125 C 123.09375 191.953125 123.074219 191.957031 123.054688 191.960938 C 123.035156 191.964844 123.011719 191.96875 122.988281 191.976562 C 122.980469 191.976562 122.96875 191.976562 122.960938 191.980469 L 122.96875 192.035156 C 122.96875 192.035156 122.992188 192.023438 123.042969 191.996094 " fill-opacity="1" fill-rule="nonzero"/></g></g></g><g clip-path="url(#8db142b06a)"><g clip-path="url(#9d14c9136b)"><g clip-path="url(#5c8a2a78c0)"><path fill="#96031a" d="M 122.222656 187.734375 C 122.234375 187.808594 122.246094 187.882812 122.261719 187.957031 C 122.246094 187.882812 122.234375 187.808594 122.222656 187.734375 " fill-opacity="1" fill-rule="nonzero"/></g></g></g><g clip-path="url(#34ca2883c8)"><g clip-path="url(#2b1c6b59ca)"><g clip-path="url(#79510a8b7a)"><path fill="#96031a" d="M 122.625 190.269531 C 122.605469 190.144531 122.585938 190.019531 122.570312 189.894531 C 122.585938 190.019531 122.605469 190.144531 122.625 190.269531 " fill-opacity="1" fill-rule="nonzero"/></g></g></g><g clip-path="url(#5a71f9d9fb)"><g clip-path="url(#ac14739775)"><g clip-path="url(#9381c4418c)"><path fill="#96031a" d="M 121.949219 186.167969 C 121.949219 186.167969 121.949219 186.164062 121.949219 186.164062 L 121.945312 186.15625 C 122.152344 187.367188 122.308594 188.296875 122.429688 189.003906 C 122.425781 189 122.425781 189 122.425781 188.996094 C 122.179688 187.53125 122.03125 186.65625 121.949219 186.167969 " fill-opacity="1" fill-rule="nonzero"/></g></g></g><g clip-path="url(#b284fdce61)"><g clip-path="url(#38c3b611ef)"><g clip-path="url(#8bab51d89e)"><path fill="#96031a" d="M 122.535156 189.691406 C 122.546875 189.757812 122.558594 189.824219 122.570312 189.894531 C 122.558594 189.839844 122.550781 189.785156 122.542969 189.734375 C 122.542969 189.71875 122.539062 189.707031 122.535156 189.691406 " fill-opacity="1" fill-rule="nonzero"/><path fill="#96031a" d="M 122.429688 189.003906 C 122.464844 189.230469 122.5 189.460938 122.535156 189.691406 C 122.507812 189.5 122.480469 189.3125 122.449219 189.128906 C 122.441406 189.089844 122.433594 189.046875 122.429688 189.003906 " fill-opacity="1" fill-rule="nonzero"/></g></g></g><g clip-path="url(#37105e3214)"><g clip-path="url(#d68626ada6)"><g clip-path="url(#0770591e7b)"><path fill="#96031a" d="M 122.691406 190.550781 C 122.601562 190.023438 122.519531 189.546875 122.449219 189.121094 C 122.449219 189.125 122.449219 189.125 122.449219 189.128906 C 122.5625 189.796875 122.640625 190.253906 122.691406 190.550781 L 122.683594 190.5625 C 122.679688 190.566406 122.675781 190.574219 122.671875 190.578125 L 122.644531 190.386719 C 122.636719 190.347656 122.632812 190.308594 122.625 190.269531 C 122.640625 190.371094 122.65625 190.472656 122.671875 190.578125 C 122.667969 190.585938 122.664062 190.589844 122.671875 190.59375 L 122.671875 190.601562 C 122.675781 190.597656 122.671875 190.601562 122.671875 190.601562 C 122.679688 190.628906 122.683594 190.660156 122.6875 190.691406 C 122.742188 191.070312 122.796875 191.460938 122.851562 191.863281 L 122.863281 191.925781 L 122.863281 191.917969 L 122.867188 191.910156 C 122.871094 191.902344 122.878906 191.890625 122.882812 191.878906 C 122.890625 191.863281 122.894531 191.847656 122.90625 191.832031 C 122.847656 191.472656 122.789062 191.136719 122.734375 190.816406 C 122.722656 190.734375 122.707031 190.640625 122.691406 190.550781 " fill-opacity="1" fill-rule="nonzero"/></g></g></g><g clip-path="url(#404e4d7dee)"><g clip-path="url(#80c937d4b0)"><g clip-path="url(#a53eae2193)"><path fill="#96031a" d="M 123.515625 152.191406 C 123.824219 152.222656 124.234375 152.265625 124.644531 152.308594 C 125.054688 152.351562 125.453125 152.414062 125.757812 152.449219 C 126.058594 152.492188 126.261719 152.519531 126.261719 152.519531 L 126.085938 158.390625 C 126.085938 158.390625 125.90625 158.371094 125.632812 158.34375 C 125.359375 158.316406 125 158.269531 124.632812 158.242188 C 124.265625 158.214844 123.894531 158.183594 123.621094 158.164062 C 123.34375 158.140625 123.15625 158.136719 123.15625 158.136719 L 122.996094 152.144531 C 122.996094 152.144531 123.207031 152.15625 123.515625 152.191406 Z M 130.136719 153.21875 C 130.433594 153.277344 130.816406 153.367188 131.203125 153.460938 C 131.589844 153.550781 131.972656 153.644531 132.261719 153.714844 C 132.40625 153.753906 132.523438 153.78125 132.609375 153.800781 C 132.691406 153.824219 132.738281 153.835938 132.738281 153.835938 L 131.953125 159.410156 C 131.953125 159.410156 131.910156 159.402344 131.835938 159.382812 C 131.757812 159.367188 131.652344 159.34375 131.519531 159.316406 C 131.257812 159.257812 130.90625 159.1875 130.558594 159.113281 C 130.210938 159.035156 129.859375 158.964844 129.59375 158.921875 C 129.328125 158.875 129.148438 158.84375 129.148438 158.84375 L 129.652344 153.117188 C 129.652344 153.117188 129.847656 153.15625 130.136719 153.21875 Z M 136.433594 154.941406 C 136.710938 155.03125 137.082031 155.152344 137.445312 155.292969 C 138.175781 155.558594 138.90625 155.828125 138.90625 155.828125 L 137.589844 161.050781 C 137.589844 161.050781 136.921875 160.824219 136.25 160.601562 C 135.917969 160.484375 135.578125 160.386719 135.324219 160.3125 C 135.066406 160.238281 134.898438 160.191406 134.898438 160.191406 L 135.96875 154.789062 C 135.96875 154.789062 136.152344 154.851562 136.433594 154.941406 Z M 138.324219 162.558594 C 138.714844 162.707031 139.136719 162.863281 139.585938 163.03125 C 140.03125 163.203125 140.488281 163.40625 140.96875 163.609375 C 141.929688 163.996094 142.917969 164.496094 143.910156 164.964844 C 144.402344 165.214844 144.882812 165.480469 145.359375 165.734375 C 145.835938 165.992188 146.300781 166.238281 146.738281 166.511719 C 147.617188 167.039062 148.441406 167.515625 149.109375 167.980469 C 149.785156 168.4375 150.351562 168.804688 150.734375 169.082031 C 151.113281 169.363281 151.332031 169.523438 151.332031 169.523438 C 151.75 169.835938 151.996094 170.320312 152.054688 170.847656 C 152.113281 171.375 151.984375 171.941406 151.660156 172.4375 L 144.238281 183.738281 C 143.589844 184.710938 142.542969 185.28125 141.917969 185 C 141.917969 185 141.757812 184.925781 141.46875 184.796875 C 141.183594 184.671875 140.761719 184.515625 140.269531 184.320312 C 139.78125 184.109375 139.183594 183.929688 138.5625 183.714844 C 138.257812 183.601562 137.925781 183.515625 137.59375 183.421875 C 137.261719 183.332031 136.929688 183.226562 136.59375 183.140625 C 135.910156 182.992188 135.25 182.808594 134.605469 182.710938 C 134.289062 182.652344 133.984375 182.585938 133.695312 182.542969 C 133.402344 182.503906 133.128906 182.464844 132.871094 182.429688 C 132.367188 182.347656 131.941406 182.324219 131.644531 182.292969 C 131.347656 182.261719 131.179688 182.246094 131.179688 182.246094 C 130.855469 182.222656 130.617188 181.933594 130.488281 181.460938 C 130.355469 180.992188 130.332031 180.347656 130.457031 179.648438 L 133.347656 163.65625 C 133.472656 162.957031 133.792969 162.378906 134.214844 162.019531 C 134.640625 161.660156 135.167969 161.511719 135.683594 161.664062 C 135.683594 161.664062 135.953125 161.75 136.414062 161.902344 C 136.878906 162.058594 137.546875 162.257812 138.324219 162.558594 Z M 143.367188 157.761719 C 143.714844 157.925781 144.0625 158.089844 144.3125 158.226562 C 144.570312 158.359375 144.738281 158.449219 144.738281 158.449219 L 142.953125 163.269531 C 142.953125 163.269531 142.800781 163.191406 142.5625 163.078125 C 142.328125 162.960938 142.007812 162.820312 141.6875 162.679688 C 141.046875 162.40625 140.402344 162.125 140.402344 162.125 L 141.972656 157.105469 C 141.972656 157.105469 142.667969 157.433594 143.367188 157.761719 Z M 148.011719 160.269531 C 148.253906 160.417969 148.585938 160.601562 148.902344 160.808594 C 149.535156 161.21875 150.171875 161.632812 150.171875 161.632812 L 147.992188 166.019531 C 147.992188 166.019531 147.402344 165.660156 146.816406 165.300781 C 146.519531 165.121094 146.210938 164.960938 145.984375 164.835938 C 145.757812 164.710938 145.605469 164.628906 145.605469 164.628906 L 147.601562 160.027344 C 147.601562 160.027344 147.765625 160.125 148.011719 160.269531 Z M 153.175781 163.753906 C 153.285156 163.835938 153.417969 163.929688 153.554688 164.039062 C 153.691406 164.144531 153.835938 164.261719 153.980469 164.378906 C 154.558594 164.84375 155.132812 165.308594 155.132812 165.308594 L 152.644531 169.238281 C 152.644531 169.238281 152.105469 168.828125 151.5625 168.417969 C 151.425781 168.316406 151.289062 168.214844 151.164062 168.117188 C 151.035156 168.027344 150.910156 167.941406 150.804688 167.871094 C 150.589844 167.722656 150.453125 167.628906 150.453125 167.628906 L 152.796875 163.476562 C 152.796875 163.476562 152.949219 163.585938 153.175781 163.753906 Z M 143.648438 186.929688 C 143.648438 186.929688 143.75 186.980469 143.898438 187.050781 C 143.96875 187.089844 144.058594 187.128906 144.148438 187.179688 C 144.242188 187.230469 144.335938 187.285156 144.433594 187.339844 C 144.820312 187.558594 145.207031 187.777344 145.207031 187.777344 L 142.492188 191.246094 C 142.492188 191.246094 142.128906 191.082031 141.765625 190.917969 C 141.675781 190.878906 141.585938 190.839844 141.503906 190.800781 C 141.417969 190.761719 141.335938 190.734375 141.265625 190.707031 C 141.128906 190.65625 141.035156 190.621094 141.035156 190.621094 Z M 144.863281 184.089844 L 152.417969 173.039062 C 152.746094 172.558594 153.203125 172.246094 153.679688 172.148438 C 154.152344 172.046875 154.652344 172.148438 155.035156 172.488281 C 155.035156 172.488281 155.816406 173.207031 156.984375 174.28125 C 157.539062 174.839844 158.183594 175.5 158.867188 176.199219 C 159.039062 176.375 159.203125 176.558594 159.371094 176.75 C 159.539062 176.9375 159.703125 177.125 159.875 177.320312 C 160.210938 177.703125 160.554688 178.089844 160.894531 178.480469 C 161.070312 178.671875 161.226562 178.875 161.386719 179.074219 C 161.546875 179.277344 161.707031 179.476562 161.863281 179.675781 C 162.175781 180.070312 162.484375 180.460938 162.78125 180.839844 C 163.085938 181.210938 163.339844 181.59375 163.597656 181.949219 C 163.847656 182.304688 164.089844 182.640625 164.308594 182.953125 C 164.527344 183.261719 164.730469 183.542969 164.90625 183.796875 C 165.074219 184.054688 165.21875 184.28125 165.335938 184.464844 C 165.570312 184.835938 165.707031 185.050781 165.707031 185.050781 C 166.226562 185.871094 166.039062 186.980469 165.292969 187.527344 L 156.726562 193.855469 C 155.980469 194.402344 154.9375 194.40625 154.402344 193.867188 C 154.402344 193.867188 154.265625 193.726562 154.023438 193.480469 C 153.902344 193.355469 153.757812 193.207031 153.589844 193.035156 C 153.414062 192.875 153.214844 192.691406 153 192.492188 C 152.78125 192.292969 152.550781 192.082031 152.304688 191.855469 C 152.054688 191.628906 151.808594 191.378906 151.523438 191.15625 C 151.242188 190.925781 150.953125 190.6875 150.664062 190.449219 C 150.515625 190.328125 150.371094 190.207031 150.222656 190.082031 C 150.078125 189.960938 149.933594 189.835938 149.777344 189.726562 C 149.46875 189.503906 149.167969 189.277344 148.863281 189.054688 C 148.714844 188.945312 148.566406 188.835938 148.421875 188.726562 C 148.277344 188.617188 148.132812 188.507812 147.984375 188.414062 C 147.398438 188.027344 146.855469 187.667969 146.386719 187.359375 C 145.433594 186.800781 144.796875 186.425781 144.796875 186.425781 C 144.492188 186.253906 144.339844 185.929688 144.351562 185.503906 C 144.363281 185.082031 144.535156 184.574219 144.863281 184.089844 Z M 157.496094 167.375 C 157.496094 167.375 157.632812 167.5 157.835938 167.683594 C 157.933594 167.777344 158.054688 167.878906 158.175781 168 C 158.296875 168.117188 158.425781 168.246094 158.554688 168.371094 C 159.066406 168.882812 159.578125 169.394531 159.578125 169.394531 L 156.863281 172.863281 C 156.863281 172.863281 156.375 172.40625 155.890625 171.953125 C 155.765625 171.839844 155.644531 171.726562 155.527344 171.617188 C 155.414062 171.511719 155.300781 171.421875 155.203125 171.339844 C 155.011719 171.175781 154.882812 171.066406 154.882812 171.066406 Z M 161.667969 171.632812 C 161.667969 171.632812 161.785156 171.765625 161.964844 171.960938 C 162.136719 172.160156 162.378906 172.425781 162.605469 172.695312 C 163.046875 173.238281 163.488281 173.785156 163.488281 173.785156 L 160.632812 176.808594 C 160.632812 176.808594 160.207031 176.316406 159.773438 175.824219 C 159.558594 175.578125 159.324219 175.34375 159.15625 175.164062 C 158.984375 174.988281 158.871094 174.867188 158.871094 174.867188 Z M 165.308594 176.148438 C 165.308594 176.148438 165.710938 176.707031 166.113281 177.265625 C 166.3125 177.546875 166.515625 177.820312 166.65625 178.039062 C 166.792969 178.25 166.886719 178.394531 166.886719 178.394531 L 163.964844 180.996094 C 163.964844 180.996094 163.871094 180.863281 163.734375 180.667969 C 163.597656 180.472656 163.394531 180.222656 163.199219 179.96875 C 162.804688 179.457031 162.410156 178.949219 162.410156 178.949219 Z M 168.457031 180.835938 C 168.457031 180.835938 168.476562 180.875 168.515625 180.9375 C 168.550781 181 168.601562 181.089844 168.664062 181.199219 C 168.792969 181.417969 168.957031 181.707031 169.121094 181.996094 C 169.453125 182.574219 169.785156 183.15625 169.785156 183.15625 L 166.859375 185.371094 L 165.523438 183.234375 Z M 167.96875 188.851562 C 167.96875 188.851562 168.109375 189.09375 168.316406 189.460938 C 168.519531 189.828125 168.761719 190.328125 169.015625 190.824219 C 169.515625 191.816406 170.011719 192.804688 170.011719 192.804688 C 170.011719 192.804688 170.164062 193.128906 170.390625 193.613281 C 170.609375 194.109375 170.941406 194.738281 171.261719 195.382812 C 171.601562 196.007812 171.933594 196.648438 172.207031 197.109375 C 172.476562 197.574219 172.65625 197.882812 172.65625 197.882812 C 172.65625 197.882812 172.777344 198.078125 172.957031 198.367188 C 173.136719 198.65625 173.371094 199.046875 173.625 199.425781 C 173.875 199.804688 174.125 200.1875 174.324219 200.464844 C 174.519531 200.746094 174.652344 200.933594 174.652344 200.933594 C 175.09375 201.566406 175.085938 202.441406 174.601562 202.914062 L 169.007812 208.28125 C 168.765625 208.515625 168.402344 208.601562 168.007812 208.546875 C 167.613281 208.496094 167.179688 208.308594 166.835938 207.980469 C 166.835938 207.980469 166.628906 207.789062 166.324219 207.5 C 166.011719 207.21875 165.617188 206.820312 165.214844 206.425781 C 164.808594 206.03125 164.425781 205.625 164.136719 205.316406 C 163.84375 205.011719 163.652344 204.808594 163.652344 204.808594 C 163.652344 204.808594 163.355469 204.480469 162.910156 203.984375 C 162.453125 203.492188 161.890625 202.8125 161.316406 202.132812 C 160.761719 201.441406 160.195312 200.75 159.804688 200.214844 C 159.402344 199.679688 159.136719 199.324219 159.136719 199.324219 C 159.136719 199.324219 158.558594 198.601562 157.976562 197.875 C 157.6875 197.519531 157.410156 197.15625 157.183594 196.894531 C 156.957031 196.636719 156.804688 196.46875 156.804688 196.46875 C 156.289062 195.894531 156.480469 194.988281 157.222656 194.449219 L 165.765625 188.3125 C 166.511719 187.769531 167.5 188.011719 167.96875 188.851562 Z M 171.097656 185.65625 C 171.097656 185.65625 171.394531 186.238281 171.6875 186.824219 C 171.757812 186.96875 171.832031 187.113281 171.898438 187.253906 C 171.960938 187.390625 172.019531 187.519531 172.070312 187.632812 C 172.167969 187.851562 172.234375 188 172.234375 188 L 169.363281 189.867188 C 169.363281 189.867188 169.296875 189.730469 169.191406 189.523438 C 169.140625 189.417969 169.082031 189.296875 169.015625 189.167969 C 168.949219 189.039062 168.875 188.90625 168.796875 188.769531 C 168.496094 188.226562 168.199219 187.683594 168.199219 187.683594 Z M 173.347656 190.523438 C 173.347656 190.523438 173.375 190.582031 173.402344 190.640625 C 173.410156 190.667969 173.425781 190.699219 173.433594 190.71875 C 173.441406 190.734375 173.445312 190.746094 173.445312 190.746094 C 173.445312 190.746094 173.589844 191.136719 173.730469 191.527344 C 173.804688 191.726562 173.871094 191.925781 173.929688 192.070312 C 173.988281 192.214844 174.027344 192.3125 174.027344 192.3125 L 171.359375 194.039062 C 171.359375 194.039062 171.3125 193.941406 171.238281 193.792969 C 171.167969 193.644531 171.082031 193.4375 170.988281 193.238281 C 170.808594 192.835938 170.625 192.4375 170.625 192.4375 C 170.625 192.4375 170.621094 192.425781 170.613281 192.40625 C 170.605469 192.386719 170.589844 192.359375 170.578125 192.332031 C 170.550781 192.28125 170.523438 192.226562 170.523438 192.226562 Z M 174.800781 194.175781 C 174.800781 194.175781 174.839844 194.273438 174.902344 194.414062 C 174.964844 194.5625 175.058594 194.746094 175.144531 194.9375 C 175.324219 195.316406 175.5 195.695312 175.5 195.695312 L 175.582031 195.859375 L 173.265625 197.65625 L 173.167969 197.492188 C 173.167969 197.492188 172.953125 197.105469 172.734375 196.71875 C 172.628906 196.523438 172.519531 196.335938 172.441406 196.1875 C 172.367188 196.039062 172.316406 195.941406 172.316406 195.941406 Z M 176.507812 197.628906 C 176.507812 197.628906 176.5625 197.734375 176.644531 197.886719 C 176.734375 198.039062 176.847656 198.242188 176.964844 198.441406 C 177.082031 198.644531 177.199219 198.847656 177.289062 199 C 177.382812 199.148438 177.445312 199.25 177.445312 199.25 L 175.476562 201.078125 C 175.476562 201.078125 175.402344 200.976562 175.296875 200.828125 C 175.191406 200.675781 175.054688 200.472656 174.914062 200.269531 C 174.777344 200.0625 174.640625 199.859375 174.535156 199.707031 C 174.4375 199.550781 174.371094 199.449219 174.371094 199.449219 Z M 175.960938 203.242188 C 176.117188 203.261719 176.273438 203.320312 176.421875 203.410156 C 176.574219 203.496094 176.714844 203.613281 176.839844 203.765625 C 176.839844 203.765625 176.972656 203.917969 177.199219 204.191406 C 177.433594 204.460938 177.769531 204.835938 178.179688 205.289062 C 179.003906 206.1875 180.15625 207.34375 181.394531 208.429688 C 182.625 209.523438 183.933594 210.539062 184.953125 211.261719 C 185.457031 211.632812 185.894531 211.914062 186.195312 212.125 C 186.5 212.328125 186.679688 212.4375 186.679688 212.4375 C 187.351562 212.886719 187.773438 213.53125 187.597656 213.917969 L 185.542969 218.347656 C 185.453125 218.542969 185.199219 218.652344 184.855469 218.679688 C 184.511719 218.707031 184.082031 218.640625 183.652344 218.472656 C 183.652344 218.472656 182.753906 218.140625 181.433594 217.558594 C 180.109375 216.980469 178.367188 216.140625 176.675781 215.175781 C 174.980469 214.21875 173.339844 213.144531 172.140625 212.289062 C 171.546875 211.859375 171.050781 211.492188 170.707031 211.234375 C 170.367188 210.96875 170.171875 210.816406 170.171875 210.816406 C 169.410156 210.238281 169.214844 209.347656 169.6875 208.886719 L 175.097656 203.515625 C 175.332031 203.28125 175.648438 203.191406 175.960938 203.242188 Z M 178.53125 200.941406 C 178.53125 200.941406 178.59375 201.042969 178.699219 201.1875 C 178.800781 201.332031 178.9375 201.523438 179.074219 201.714844 C 179.210938 201.910156 179.34375 202.105469 179.453125 202.246094 C 179.5625 202.386719 179.632812 202.480469 179.632812 202.480469 L 178.003906 204.300781 C 178.003906 204.300781 177.921875 204.207031 177.800781 204.066406 C 177.675781 203.929688 177.519531 203.734375 177.363281 203.542969 C 177.207031 203.351562 177.050781 203.160156 176.933594 203.015625 C 176.816406 202.871094 176.742188 202.773438 176.742188 202.773438 Z M 180.894531 204.085938 C 180.894531 204.085938 181.207031 204.449219 181.515625 204.816406 C 181.835938 205.175781 182.15625 205.53125 182.15625 205.53125 L 180.851562 207.300781 C 180.851562 207.300781 180.496094 206.949219 180.132812 206.601562 C 179.785156 206.242188 179.4375 205.882812 179.4375 205.882812 Z M 183.597656 207.027344 C 183.597656 207.027344 183.941406 207.371094 184.300781 207.707031 C 184.480469 207.871094 184.65625 208.042969 184.792969 208.164062 C 184.929688 208.289062 185.023438 208.371094 185.023438 208.371094 L 184.015625 210.042969 C 184.015625 210.042969 183.917969 209.964844 183.765625 209.847656 C 183.617188 209.730469 183.421875 209.5625 183.226562 209.402344 C 182.832031 209.085938 182.453125 208.75 182.453125 208.75 Z M 186.875 209.941406 C 187.023438 210.054688 187.214844 210.214844 187.414062 210.367188 C 187.613281 210.515625 187.8125 210.667969 187.960938 210.78125 C 188.113281 210.894531 188.210938 210.96875 188.210938 210.96875 L 187.472656 212.507812 C 187.472656 212.507812 187.363281 212.4375 187.203125 212.328125 C 187.039062 212.222656 186.828125 212.082031 186.613281 211.9375 C 186.398438 211.796875 186.191406 211.644531 186.03125 211.535156 C 185.875 211.425781 185.769531 211.351562 185.769531 211.351562 L 186.632812 209.746094 C 186.632812 209.746094 186.730469 209.824219 186.875 209.941406 Z M 189.890625 214.34375 C 189.890625 214.34375 189.9375 214.371094 190.023438 214.417969 C 190.109375 214.46875 190.238281 214.535156 190.40625 214.621094 C 190.734375 214.789062 191.203125 215.039062 191.78125 215.316406 C 192.925781 215.875 194.492188 216.574219 196.105469 217.179688 C 197.722656 217.789062 199.378906 218.316406 200.636719 218.671875 C 201.894531 219.023438 202.75 219.222656 202.75 219.222656 C 203.570312 219.425781 204.226562 219.707031 204.210938 219.878906 L 203.996094 221.886719 C 203.976562 222.054688 203.246094 222.195312 202.359375 222.171875 C 202.359375 222.171875 202.128906 222.167969 201.726562 222.148438 C 201.324219 222.136719 200.746094 222.105469 200.058594 222.058594 C 198.675781 221.964844 196.828125 221.777344 194.984375 221.492188 C 193.140625 221.203125 191.300781 220.808594 189.929688 220.460938 C 189.242188 220.292969 188.675781 220.132812 188.273438 220.019531 C 188.074219 219.964844 187.917969 219.917969 187.8125 219.886719 C 187.707031 219.855469 187.648438 219.835938 187.648438 219.835938 C 186.769531 219.582031 186.199219 219.035156 186.371094 218.652344 L 188.300781 214.308594 C 188.472656 213.925781 189.175781 213.957031 189.890625 214.34375 Z M 190.835938 212.765625 C 191.269531 213.035156 191.707031 213.300781 191.707031 213.300781 L 191.191406 214.667969 C 191.191406 214.667969 190.730469 214.421875 190.269531 214.175781 C 189.816406 213.921875 189.363281 213.664062 189.363281 213.664062 L 189.984375 212.210938 C 189.984375 212.210938 190.410156 212.488281 190.835938 212.765625 Z M 194.539062 214.882812 C 195.003906 215.117188 195.46875 215.351562 195.46875 215.351562 L 195.140625 216.519531 C 195.140625 216.519531 194.652344 216.3125 194.167969 216.101562 C 193.6875 215.886719 193.207031 215.667969 193.207031 215.667969 L 193.621094 214.398438 C 193.621094 214.398438 194.078125 214.640625 194.539062 214.882812 Z M 197.816406 216.421875 C 197.996094 216.496094 198.238281 216.605469 198.484375 216.703125 C 198.730469 216.800781 198.976562 216.902344 199.160156 216.976562 C 199.347656 217.046875 199.46875 217.097656 199.46875 217.097656 L 199.28125 218.046875 C 199.28125 218.046875 199.15625 218.007812 198.964844 217.945312 C 198.773438 217.882812 198.519531 217.792969 198.265625 217.707031 C 198.011719 217.625 197.761719 217.53125 197.574219 217.464844 C 197.386719 217.394531 197.261719 217.351562 197.261719 217.351562 L 197.511719 216.289062 C 197.511719 216.289062 197.632812 216.34375 197.816406 216.421875 Z M 203.621094 218.925781 L 203.578125 219.257812 C 203.578125 219.257812 203.054688 219.125 202.53125 218.992188 C 202.269531 218.925781 202.007812 218.855469 201.8125 218.804688 C 201.617188 218.75 201.488281 218.714844 201.488281 218.714844 L 201.617188 217.878906 C 201.617188 217.878906 201.726562 217.914062 201.894531 217.972656 C 202.453125 218.3125 203.027344 218.628906 203.621094 218.925781 Z M 200.304688 207.609375 C 196.382812 205.898438 195.570312 201.339844 198.496094 197.421875 C 201.421875 193.507812 206.96875 191.71875 210.894531 193.429688 C 214.816406 195.140625 215.625 199.703125 212.703125 203.617188 C 209.777344 207.535156 204.226562 209.320312 200.304688 207.609375 Z M 202.324219 183.941406 C 202.894531 179.695312 207.296875 175.863281 212.15625 175.386719 C 217.015625 174.910156 220.492188 177.96875 219.921875 182.214844 C 219.351562 186.460938 214.949219 190.289062 210.089844 190.765625 C 205.230469 191.242188 201.753906 188.1875 202.324219 183.941406 Z M 227.023438 168.898438 C 231.519531 166.363281 236.730469 167.09375 238.664062 170.535156 C 240.601562 173.972656 238.527344 178.816406 234.035156 181.355469 C 229.539062 183.890625 224.328125 183.15625 222.394531 179.71875 C 220.457031 176.28125 222.53125 171.4375 227.023438 168.898438 Z M 237.3125 181.523438 C 240.234375 177.609375 245.785156 175.820312 249.710938 177.53125 C 253.632812 179.242188 254.441406 183.800781 251.515625 187.71875 C 248.59375 191.632812 243.042969 193.421875 239.121094 191.710938 C 235.199219 190 234.386719 185.441406 237.3125 181.523438 Z M 247.691406 201.203125 C 247.121094 205.449219 242.71875 209.277344 237.859375 209.753906 C 233 210.230469 229.523438 207.175781 230.09375 202.929688 C 230.664062 198.679688 235.066406 194.851562 239.925781 194.375 C 244.785156 193.898438 248.261719 196.953125 247.691406 201.203125 Z M 222.988281 216.242188 C 218.496094 218.777344 213.285156 218.046875 211.347656 214.605469 C 209.410156 211.167969 211.484375 206.324219 215.980469 203.785156 C 220.472656 201.25 225.6875 201.984375 227.621094 205.421875 C 229.554688 208.863281 227.480469 213.707031 222.988281 216.242188 Z M 211.71875 221.742188 C 210.40625 221.910156 209.082031 222.019531 208.085938 222.082031 C 207.089844 222.144531 206.421875 222.164062 206.421875 222.164062 C 205.539062 222.199219 204.835938 222.070312 204.851562 221.902344 L 205.027344 220.027344 C 205.035156 219.945312 205.210938 219.902344 205.488281 219.898438 C 205.597656 219.898438 205.726562 219.90625 205.867188 219.917969 C 207.953125 220.730469 210.191406 221.304688 212.53125 221.636719 C 212.265625 221.671875 211.992188 221.710938 211.71875 221.742188 Z M 211.441406 222.136719 C 210.882812 222.242188 210.320312 222.332031 210.320312 222.332031 L 210.320312 221.976562 C 210.320312 221.976562 210.878906 221.917969 211.4375 221.84375 C 211.996094 221.769531 212.546875 221.6875 212.546875 221.6875 L 212.558594 221.921875 C 212.558594 221.921875 212 222.035156 211.441406 222.136719 Z M 207.535156 222.722656 C 207.320312 222.742188 207.035156 222.773438 206.75 222.804688 C 206.464844 222.832031 206.175781 222.863281 205.960938 222.882812 C 205.746094 222.902344 205.601562 222.914062 205.601562 222.914062 L 205.648438 222.316406 C 205.648438 222.316406 205.792969 222.3125 206.003906 222.304688 C 206.214844 222.292969 206.5 222.28125 206.78125 222.269531 C 207.066406 222.25 207.347656 222.234375 207.558594 222.222656 C 207.769531 222.207031 207.910156 222.195312 207.910156 222.195312 L 207.890625 222.675781 C 207.890625 222.675781 207.75 222.695312 207.535156 222.722656 Z M 201.964844 223.113281 C 201.671875 223.117188 201.378906 223.125 201.164062 223.125 C 200.941406 223.128906 200.796875 223.128906 200.796875 223.128906 L 200.925781 222.296875 C 200.925781 222.296875 201.070312 222.300781 201.285156 222.308594 C 201.5 222.316406 201.785156 222.328125 202.070312 222.335938 C 202.640625 222.34375 203.210938 222.351562 203.210938 222.351562 L 203.125 223.074219 C 203.125 223.074219 202.546875 223.089844 201.964844 223.113281 Z M 197.917969 223.082031 C 197.695312 223.070312 197.402344 223.054688 197.105469 223.039062 C 196.8125 223.027344 196.515625 223.003906 196.296875 222.988281 C 196.074219 222.972656 195.925781 222.960938 195.925781 222.960938 L 196.175781 221.902344 C 196.175781 221.902344 196.320312 221.917969 196.535156 221.945312 C 196.75 221.972656 197.039062 222.007812 197.324219 222.03125 C 197.613281 222.0625 197.898438 222.089844 198.113281 222.109375 C 198.328125 222.128906 198.472656 222.140625 198.472656 222.140625 L 198.285156 223.09375 C 198.285156 223.09375 198.136719 223.085938 197.917969 223.082031 Z M 192.199219 222.566406 C 191.605469 222.476562 191.011719 222.386719 191.011719 222.386719 L 191.425781 221.117188 C 191.425781 221.117188 191.996094 221.230469 192.570312 221.34375 C 193.144531 221.445312 193.71875 221.546875 193.71875 221.546875 L 193.386719 222.71875 C 193.386719 222.71875 192.792969 222.640625 192.199219 222.566406 Z M 187.273438 221.652344 C 186.679688 221.503906 186.085938 221.363281 186.085938 221.363281 L 186.703125 219.910156 C 186.703125 219.910156 187.269531 220.074219 187.839844 220.238281 C 188.40625 220.390625 188.976562 220.542969 188.976562 220.542969 L 188.460938 221.914062 C 188.460938 221.914062 187.867188 221.78125 187.273438 221.652344 Z M 183.175781 220.535156 C 182.957031 220.460938 182.660156 220.367188 182.367188 220.273438 C 182.070312 220.179688 181.78125 220.070312 181.558594 219.996094 C 181.339844 219.917969 181.191406 219.867188 181.191406 219.867188 L 182.054688 218.257812 C 182.054688 218.257812 182.195312 218.316406 182.402344 218.398438 C 182.613281 218.480469 182.886719 218.597656 183.167969 218.699219 C 183.449219 218.804688 183.726562 218.90625 183.9375 218.984375 C 184.148438 219.0625 184.289062 219.113281 184.289062 219.113281 L 183.546875 220.648438 C 183.546875 220.648438 183.398438 220.605469 183.175781 220.535156 Z M 178.691406 218.902344 C 178.691406 218.902344 178.542969 218.84375 178.328125 218.753906 C 178.109375 218.664062 177.824219 218.53125 177.53125 218.40625 C 176.953125 218.15625 176.382812 217.882812 176.382812 217.882812 L 177.527344 216.160156 C 177.527344 216.160156 178.0625 216.445312 178.609375 216.707031 C 178.878906 216.839844 179.148438 216.976562 179.351562 217.070312 C 179.558594 217.167969 179.695312 217.230469 179.695312 217.230469 Z M 173.949219 216.664062 C 173.949219 216.664062 173.386719 216.359375 172.824219 216.054688 C 172.269531 215.734375 171.71875 215.410156 171.71875 215.410156 L 173.175781 213.613281 C 173.175781 213.613281 173.691406 213.941406 174.203125 214.269531 C 174.730469 214.582031 175.25 214.898438 175.25 214.898438 Z M 169.382812 213.941406 C 169.382812 213.941406 169.246094 213.851562 169.046875 213.71875 C 168.839844 213.585938 168.578125 213.402344 168.3125 213.214844 C 168.046875 213.027344 167.785156 212.839844 167.585938 212.703125 C 167.382812 212.5625 167.257812 212.464844 167.257812 212.464844 L 169.046875 210.632812 C 169.046875 210.632812 169.164062 210.734375 169.347656 210.871094 C 169.53125 211.015625 169.777344 211.199219 170.023438 211.390625 C 170.265625 211.578125 170.507812 211.765625 170.699219 211.894531 C 170.886719 212.03125 171.011719 212.121094 171.011719 212.121094 Z M 165.046875 210.761719 C 165.046875 210.761719 164.921875 210.660156 164.730469 210.507812 C 164.542969 210.351562 164.292969 210.140625 164.042969 209.929688 C 163.796875 209.71875 163.546875 209.507812 163.359375 209.347656 C 163.175781 209.1875 163.054688 209.078125 163.054688 209.078125 L 165.191406 207.261719 C 165.191406 207.261719 165.300781 207.367188 165.46875 207.53125 C 165.640625 207.6875 165.867188 207.898438 166.09375 208.105469 C 166.324219 208.316406 166.550781 208.523438 166.722656 208.679688 C 166.898438 208.835938 167.015625 208.933594 167.015625 208.933594 Z M 160.996094 207.171875 L 160.804688 206.996094 C 160.804688 206.996094 160.390625 206.574219 159.972656 206.160156 C 159.765625 205.945312 159.554688 205.738281 159.402344 205.578125 C 159.25 205.414062 159.148438 205.308594 159.148438 205.308594 L 161.636719 203.542969 C 161.636719 203.542969 161.726562 203.644531 161.863281 203.804688 C 162.003906 203.960938 162.195312 204.167969 162.382812 204.375 C 162.761719 204.789062 163.140625 205.199219 163.140625 205.199219 L 163.3125 205.375 Z M 157.230469 203.195312 C 157.230469 203.195312 157.132812 203.085938 156.984375 202.917969 C 156.839844 202.75 156.652344 202.519531 156.460938 202.292969 C 156.082031 201.839844 155.703125 201.382812 155.703125 201.382812 C 155.703125 201.382812 155.691406 201.371094 155.679688 201.351562 C 155.664062 201.339844 155.648438 201.320312 155.632812 201.304688 C 155.597656 201.269531 155.566406 201.234375 155.566406 201.234375 L 158.390625 199.535156 C 158.390625 199.535156 158.421875 199.574219 158.453125 199.609375 C 158.46875 199.628906 158.484375 199.648438 158.496094 199.664062 C 158.511719 199.683594 158.519531 199.695312 158.519531 199.695312 C 158.519531 199.695312 158.863281 200.140625 159.203125 200.585938 C 159.375 200.808594 159.542969 201.03125 159.675781 201.195312 C 159.808594 201.359375 159.894531 201.464844 159.894531 201.464844 Z M 154.160156 199.753906 C 154.160156 199.753906 154.078125 199.667969 153.957031 199.539062 C 153.898438 199.476562 153.828125 199.398438 153.75 199.320312 C 153.671875 199.242188 153.585938 199.164062 153.5 199.082031 C 153.160156 198.761719 152.824219 198.4375 152.824219 198.4375 L 155.726562 196.410156 C 155.726562 196.410156 156.058594 196.773438 156.390625 197.136719 C 156.472656 197.226562 156.554688 197.316406 156.632812 197.402344 C 156.707031 197.492188 156.773438 197.574219 156.835938 197.648438 C 156.953125 197.792969 157.03125 197.886719 157.03125 197.886719 Z M 151.367188 197.105469 L 149.988281 195.929688 L 152.921875 193.535156 L 154.292969 194.890625 Z M 148.476562 194.78125 C 148.476562 194.78125 148.390625 194.714844 148.257812 194.613281 C 148.125 194.515625 147.941406 194.402344 147.761719 194.277344 C 147.40625 194.035156 147.046875 193.792969 147.046875 193.792969 L 149.945312 190.992188 C 149.945312 190.992188 150.3125 191.285156 150.675781 191.578125 C 150.859375 191.722656 151.046875 191.867188 151.179688 191.980469 C 151.3125 192.101562 151.398438 192.179688 151.398438 192.179688 Z M 145.503906 192.828125 C 145.503906 192.828125 145.144531 192.613281 144.785156 192.398438 C 144.605469 192.296875 144.417969 192.207031 144.28125 192.132812 C 144.144531 192.066406 144.054688 192.015625 144.054688 192.015625 L 146.851562 188.78125 C 146.851562 188.78125 146.949219 188.839844 147.089844 188.929688 C 147.230469 189.023438 147.429688 189.140625 147.613281 189.269531 C 147.988281 189.539062 148.359375 189.804688 148.359375 189.804688 Z M 139.472656 190.054688 C 139.472656 190.054688 139.109375 189.9375 138.746094 189.824219 C 138.65625 189.792969 138.566406 189.765625 138.484375 189.738281 C 138.398438 189.710938 138.316406 189.695312 138.246094 189.675781 C 138.109375 189.640625 138.019531 189.617188 138.019531 189.617188 L 140.363281 185.464844 C 140.363281 185.464844 140.464844 185.503906 140.617188 185.558594 C 140.695312 185.585938 140.78125 185.617188 140.875 185.65625 C 140.96875 185.695312 141.066406 185.738281 141.164062 185.78125 C 141.5625 185.953125 141.960938 186.125 141.960938 186.125 Z M 135.75 189.097656 C 135.574219 189.0625 135.390625 189.042969 135.253906 189.023438 C 135.121094 189.003906 135.03125 188.988281 135.03125 188.988281 L 137.027344 184.390625 C 137.027344 184.390625 137.128906 184.417969 137.28125 184.457031 C 137.433594 184.5 137.640625 184.542969 137.839844 184.605469 C 138.242188 184.734375 138.644531 184.863281 138.644531 184.863281 L 136.464844 189.246094 C 136.464844 189.246094 136.109375 189.171875 135.75 189.097656 Z M 133.285156 188.78125 C 133.152344 188.765625 132.976562 188.757812 132.796875 188.75 C 132.449219 188.734375 132.09375 188.714844 132.09375 188.714844 L 133.664062 183.695312 C 133.664062 183.695312 134.070312 183.761719 134.476562 183.828125 C 134.679688 183.859375 134.886719 183.890625 135.035156 183.929688 C 135.1875 183.960938 135.289062 183.984375 135.289062 183.984375 L 133.503906 188.804688 C 133.503906 188.804688 133.417969 188.796875 133.285156 188.78125 Z M 129.917969 188.738281 C 129.746094 188.738281 129.578125 188.757812 129.445312 188.769531 C 129.320312 188.777344 129.234375 188.785156 129.234375 188.785156 L 130.304688 183.386719 C 130.304688 183.386719 130.402344 183.390625 130.554688 183.398438 C 130.707031 183.402344 130.910156 183.40625 131.113281 183.425781 C 131.515625 183.457031 131.921875 183.488281 131.921875 183.488281 L 130.605469 188.707031 C 130.605469 188.707031 130.261719 188.722656 129.917969 188.738281 Z M 127.742188 188.949219 C 127.707031 188.957031 127.65625 188.964844 127.59375 188.976562 C 127.46875 188.996094 127.304688 189.023438 127.140625 189.050781 C 126.980469 189.078125 126.816406 189.105469 126.695312 189.132812 C 126.578125 189.160156 126.496094 189.175781 126.496094 189.175781 L 126.996094 183.449219 C 126.996094 183.449219 127.097656 183.441406 127.242188 183.429688 C 127.390625 183.414062 127.589844 183.40625 127.785156 183.398438 C 127.984375 183.390625 128.183594 183.382812 128.332031 183.375 C 128.40625 183.375 128.472656 183.371094 128.515625 183.367188 C 128.558594 183.367188 128.582031 183.367188 128.582031 183.367188 L 127.796875 188.941406 C 127.796875 188.941406 127.777344 188.945312 127.742188 188.949219 Z M 124.976562 189.546875 C 124.867188 189.585938 124.714844 189.617188 124.570312 189.671875 C 124.429688 189.71875 124.289062 189.765625 124.183594 189.800781 C 124.074219 189.835938 124.011719 189.863281 124.011719 189.863281 L 123.847656 183.875 C 123.847656 183.875 123.9375 183.851562 124.074219 183.828125 C 124.214844 183.804688 124.398438 183.769531 124.582031 183.738281 C 124.765625 183.703125 124.957031 183.683594 125.101562 183.660156 C 125.242188 183.636719 125.335938 183.625 125.335938 183.625 L 125.164062 189.496094 C 125.164062 189.496094 125.085938 189.515625 124.976562 189.546875 Z M 116.183594 152.089844 C 116.382812 152.074219 116.613281 152.058594 116.859375 152.039062 C 116.992188 152.027344 117.09375 152.023438 117.210938 152.019531 C 117.328125 152.015625 117.441406 152.007812 117.558594 152.003906 C 117.675781 152 117.792969 151.992188 117.90625 151.988281 C 118.011719 151.988281 118.121094 151.984375 118.222656 151.980469 C 118.421875 151.980469 118.613281 151.976562 118.773438 151.972656 C 118.933594 151.972656 119.074219 151.96875 119.160156 151.972656 C 119.25 151.972656 119.300781 151.972656 119.300781 151.972656 L 119.886719 158.0625 C 119.886719 158.0625 119.707031 158.0625 119.425781 158.074219 C 119.285156 158.078125 119.121094 158.085938 118.945312 158.089844 C 118.855469 158.09375 118.765625 158.097656 118.671875 158.101562 C 118.574219 158.109375 118.476562 158.113281 118.375 158.121094 C 118.175781 158.132812 117.988281 158.144531 117.785156 158.160156 C 117.578125 158.179688 117.382812 158.199219 117.21875 158.214844 C 117.019531 158.238281 116.847656 158.261719 116.730469 158.273438 C 116.722656 158.277344 116.71875 158.277344 116.710938 158.277344 L 116.707031 158.28125 C 116.703125 158.277344 116.699219 158.28125 116.695312 158.28125 C 116.691406 158.28125 116.6875 158.28125 116.6875 158.28125 L 116.9375 159.621094 C 116.9375 159.621094 116.941406 159.617188 116.949219 159.617188 C 116.964844 159.617188 116.945312 159.617188 117.046875 159.605469 C 117.191406 159.585938 117.449219 159.550781 117.664062 159.53125 C 117.785156 159.519531 117.914062 159.507812 118.058594 159.496094 C 118.1875 159.484375 118.328125 159.472656 118.480469 159.464844 C 118.628906 159.453125 118.792969 159.441406 118.953125 159.433594 C 119.113281 159.429688 119.28125 159.421875 119.453125 159.414062 C 120.84375 159.359375 122.574219 159.386719 124.265625 159.511719 C 125.957031 159.636719 127.609375 159.847656 128.832031 160.0625 C 129.445312 160.164062 129.953125 160.25 130.308594 160.324219 C 130.660156 160.398438 130.859375 160.4375 130.859375 160.4375 C 131.128906 160.492188 131.375 160.617188 131.585938 160.796875 C 131.796875 160.976562 131.972656 161.21875 132.109375 161.488281 C 132.382812 162.035156 132.484375 162.722656 132.371094 163.425781 L 129.777344 179.605469 C 129.664062 180.308594 129.421875 180.941406 129.136719 181.402344 C 128.992188 181.632812 128.835938 181.8125 128.679688 181.945312 C 128.519531 182.078125 128.355469 182.15625 128.195312 182.160156 C 128.195312 182.160156 128.074219 182.160156 127.863281 182.164062 C 127.648438 182.164062 127.347656 182.183594 126.984375 182.203125 C 126.261719 182.234375 125.304688 182.332031 124.386719 182.472656 C 123.472656 182.609375 122.59375 182.804688 122.039062 182.96875 C 121.972656 182.988281 121.90625 183.007812 121.84375 183.027344 C 121.78125 183.042969 121.738281 183.0625 121.691406 183.082031 C 121.640625 183.097656 121.597656 183.113281 121.558594 183.125 C 121.53125 183.140625 121.507812 183.152344 121.484375 183.164062 C 121.421875 183.191406 121.453125 183.179688 121.449219 183.183594 C 121.375 183.21875 121.332031 183.238281 121.332031 183.238281 L 121.582031 184.578125 C 121.582031 184.578125 121.625 184.554688 121.703125 184.515625 C 121.695312 184.519531 121.683594 184.523438 121.671875 184.523438 C 121.695312 184.507812 121.71875 184.492188 121.75 184.472656 C 121.777344 184.453125 121.84375 184.433594 121.890625 184.410156 L 121.96875 184.378906 C 122 184.367188 122.03125 184.355469 122.0625 184.34375 C 122.121094 184.324219 122.175781 184.304688 122.226562 184.289062 C 122.320312 184.253906 122.398438 184.234375 122.398438 184.234375 L 122.980469 190.324219 C 122.980469 190.324219 122.96875 190.332031 122.949219 190.339844 C 122.925781 190.351562 122.90625 190.371094 122.878906 190.390625 C 122.851562 190.410156 122.820312 190.433594 122.785156 190.457031 C 122.773438 190.464844 122.75 190.480469 122.738281 190.492188 L 122.710938 190.527344 L 122.691406 190.550781 C 122.695312 190.582031 122.699219 190.613281 122.707031 190.644531 L 122.714844 190.644531 L 122.726562 190.640625 L 122.75 190.636719 C 122.765625 190.632812 122.777344 190.632812 122.792969 190.628906 C 122.816406 190.625 122.839844 190.621094 122.859375 190.617188 C 122.871094 190.613281 122.847656 190.625 122.839844 190.628906 C 122.828125 190.636719 122.816406 190.640625 122.808594 190.648438 C 122.792969 190.65625 122.773438 190.667969 122.761719 190.675781 C 122.734375 190.691406 122.71875 190.699219 122.71875 190.699219 L 122.925781 191.808594 C 122.929688 191.804688 122.933594 191.800781 122.9375 191.796875 C 122.972656 191.765625 123.011719 191.734375 123.050781 191.699219 C 123.097656 191.664062 123.160156 191.628906 123.21875 191.589844 C 123.25 191.566406 123.285156 191.546875 123.316406 191.527344 C 123.355469 191.503906 123.394531 191.484375 123.433594 191.464844 C 123.519531 191.421875 123.605469 191.375 123.695312 191.328125 C 123.898438 191.246094 124.105469 191.140625 124.363281 191.046875 C 124.859375 190.847656 125.476562 190.660156 126.175781 190.476562 C 126.355469 190.433594 126.535156 190.390625 126.71875 190.34375 C 126.90625 190.308594 127.101562 190.269531 127.292969 190.226562 C 127.394531 190.207031 127.492188 190.1875 127.59375 190.167969 C 127.695312 190.152344 127.796875 190.136719 127.898438 190.121094 C 128.109375 190.085938 128.316406 190.054688 128.53125 190.019531 C 128.960938 189.980469 129.414062 189.902344 129.871094 189.882812 C 130.101562 189.871094 130.339844 189.84375 130.578125 189.835938 C 130.816406 189.828125 131.058594 189.824219 131.300781 189.816406 C 131.550781 189.800781 131.796875 189.8125 132.046875 189.820312 C 132.296875 189.828125 132.554688 189.824219 132.808594 189.835938 C 133.066406 189.855469 133.328125 189.875 133.585938 189.890625 C 133.714844 189.902344 133.847656 189.90625 133.980469 189.917969 L 134.375 189.96875 C 134.640625 190 134.910156 190.03125 135.179688 190.0625 C 135.449219 190.109375 135.71875 190.15625 135.988281 190.207031 C 136.539062 190.285156 137.078125 190.433594 137.632812 190.554688 C 139.847656 191.085938 142.089844 191.980469 144.1875 193.097656 C 146.289062 194.203125 148.207031 195.574219 149.835938 196.855469 C 150.238281 197.1875 150.625 197.507812 150.996094 197.808594 C 151.089844 197.886719 151.183594 197.957031 151.269531 198.039062 C 151.355469 198.117188 151.441406 198.195312 151.523438 198.273438 C 151.695312 198.429688 151.859375 198.582031 152.019531 198.726562 C 152.339844 199.023438 152.644531 199.300781 152.921875 199.554688 C 152.992188 199.621094 153.0625 199.683594 153.125 199.746094 C 153.191406 199.808594 153.253906 199.875 153.316406 199.9375 C 153.4375 200.0625 153.554688 200.183594 153.664062 200.296875 C 154.117188 200.753906 154.46875 201.117188 154.707031 201.363281 C 154.832031 201.484375 154.921875 201.582031 154.984375 201.644531 C 155.015625 201.675781 155.042969 201.699219 155.058594 201.71875 C 155.078125 201.742188 155.089844 201.753906 155.089844 201.753906 C 155.089844 201.753906 155.398438 202.121094 155.863281 202.671875 C 156.320312 203.222656 156.972656 203.9375 157.613281 204.644531 C 158.273438 205.34375 158.925781 206.042969 159.445312 206.546875 C 159.957031 207.050781 160.296875 207.386719 160.296875 207.386719 C 160.296875 207.386719 160.484375 207.5625 160.839844 207.894531 C 161.015625 208.058594 161.230469 208.261719 161.484375 208.5 C 161.742188 208.738281 162.050781 209 162.386719 209.300781 C 163.738281 210.484375 165.722656 212.121094 168.25 213.828125 C 169.519531 214.675781 170.914062 215.550781 172.425781 216.386719 C 173.9375 217.222656 175.5625 218.027344 177.265625 218.761719 C 180.671875 220.238281 184.398438 221.414062 188.132812 222.164062 C 191.863281 222.933594 195.59375 223.273438 199.03125 223.316406 C 200.75 223.335938 202.402344 223.28125 203.953125 223.179688 C 205.5 223.070312 206.953125 222.910156 208.28125 222.730469 C 210.355469 222.4375 212.125 222.082031 213.511719 221.757812 C 221.289062 222.625 230.121094 220.859375 238.320312 216.230469 C 255.398438 206.597656 263.277344 188.191406 255.925781 175.121094 C 248.570312 162.054688 228.765625 159.273438 211.691406 168.910156 C 194.617188 178.546875 186.738281 196.949219 194.089844 210.019531 C 195.828125 213.105469 198.261719 215.621094 201.1875 217.53125 C 200.847656 217.40625 200.511719 217.28125 200.167969 217.148438 C 197.277344 216.023438 194.34375 214.597656 191.664062 212.902344 C 188.972656 211.21875 186.542969 209.289062 184.515625 207.3125 C 183.5 206.328125 182.582031 205.332031 181.761719 204.359375 C 180.945312 203.390625 180.230469 202.429688 179.601562 201.542969 C 178.351562 199.746094 177.46875 198.179688 176.886719 197.066406 C 176.742188 196.785156 176.609375 196.542969 176.503906 196.324219 C 176.398438 196.105469 176.308594 195.917969 176.234375 195.765625 C 176.089844 195.464844 176.011719 195.304688 176.011719 195.304688 C 176.011719 195.304688 175.875 195 175.671875 194.546875 C 175.460938 194.097656 175.21875 193.472656 174.964844 192.867188 C 174.730469 192.242188 174.488281 191.632812 174.332031 191.15625 C 174.167969 190.6875 174.058594 190.375 174.058594 190.375 C 174.058594 190.375 174.058594 190.367188 174.050781 190.34375 C 174.039062 190.316406 174.019531 190.273438 173.996094 190.21875 C 173.945312 190.105469 173.875 189.9375 173.78125 189.722656 C 173.59375 189.285156 173.320312 188.648438 172.96875 187.835938 C 172.878906 187.632812 172.785156 187.417969 172.6875 187.191406 C 172.636719 187.078125 172.585938 186.960938 172.535156 186.84375 C 172.480469 186.730469 172.421875 186.609375 172.363281 186.488281 C 172.121094 186 171.863281 185.476562 171.585938 184.914062 C 171.449219 184.628906 171.300781 184.339844 171.152344 184.039062 C 171.078125 183.890625 171.003906 183.738281 170.925781 183.582031 C 170.847656 183.429688 170.757812 183.277344 170.671875 183.121094 C 170.324219 182.496094 169.957031 181.839844 169.570312 181.152344 C 167.976562 178.421875 165.9375 175.246094 163.25 172.042969 C 162.574219 171.246094 161.859375 170.449219 161.132812 169.636719 C 160.390625 168.839844 159.597656 168.054688 158.804688 167.253906 C 158.394531 166.863281 157.972656 166.480469 157.550781 166.09375 C 157.125 165.710938 156.703125 165.316406 156.265625 164.9375 C 155.816406 164.566406 155.367188 164.195312 154.917969 163.824219 C 154.464844 163.457031 154.011719 163.078125 153.535156 162.734375 C 152.585938 162.03125 151.640625 161.3125 150.640625 160.667969 C 150.144531 160.339844 149.648438 160.007812 149.148438 159.6875 C 148.636719 159.382812 148.128906 159.078125 147.617188 158.773438 C 147.363281 158.621094 147.105469 158.472656 146.851562 158.320312 C 146.59375 158.175781 146.332031 158.039062 146.074219 157.898438 C 145.550781 157.617188 145.027344 157.339844 144.511719 157.066406 C 143.988281 156.800781 143.457031 156.554688 142.933594 156.300781 C 142.410156 156.050781 141.886719 155.800781 141.355469 155.582031 C 140.824219 155.359375 140.296875 155.136719 139.777344 154.914062 C 139.25 154.699219 138.722656 154.511719 138.199219 154.3125 C 137.160156 153.910156 136.117188 153.585938 135.097656 153.25 C 134.585938 153.09375 134.078125 152.949219 133.578125 152.804688 C 133.324219 152.734375 133.074219 152.664062 132.828125 152.59375 C 132.578125 152.53125 132.328125 152.46875 132.085938 152.40625 C 131.589844 152.285156 131.105469 152.164062 130.625 152.050781 C 130.144531 151.949219 129.671875 151.847656 129.207031 151.75 C 127.339844 151.375 125.59375 151.105469 123.996094 150.9375 C 123.207031 150.84375 122.441406 150.792969 121.734375 150.738281 C 121.375 150.71875 121.027344 150.699219 120.695312 150.683594 C 120.53125 150.675781 120.367188 150.667969 120.210938 150.664062 C 120.042969 150.65625 119.882812 150.65625 119.726562 150.652344 C 118.5 150.617188 117.425781 150.652344 116.605469 150.703125 C 116.390625 150.71875 116.199219 150.734375 116.03125 150.746094 C 115.960938 150.75 115.84375 150.765625 115.757812 150.777344 C 115.667969 150.785156 115.589844 150.792969 115.515625 150.804688 C 115.445312 150.8125 115.378906 150.820312 115.324219 150.824219 C 115.304688 150.828125 115.300781 150.828125 115.300781 150.828125 L 115.550781 152.164062 C 115.550781 152.164062 115.804688 152.136719 116.183594 152.089844 " fill-opacity="1" fill-rule="nonzero"/></g></g></g><g clip-path="url(#6fdcaf6dca)"><g clip-path="url(#a89f2585a8)"><g clip-path="url(#83902493f7)"><path fill="#96031a" d="M 122.449219 189.121094 C 122.414062 188.910156 122.382812 188.703125 122.347656 188.496094 C 122.375 188.660156 122.402344 188.828125 122.425781 188.996094 C 122.433594 189.039062 122.441406 189.082031 122.449219 189.121094 " fill-opacity="1" fill-rule="nonzero"/></g></g></g><g clip-path="url(#cdda20d95e)"><g clip-path="url(#d1977a6fd3)"><g clip-path="url(#4381565613)"><path fill="#96031a" d="M 122.34375 188.472656 C 122.335938 188.421875 122.328125 188.371094 122.320312 188.320312 C 122.328125 188.378906 122.339844 188.4375 122.347656 188.496094 C 122.347656 188.488281 122.34375 188.480469 122.34375 188.472656 " fill-opacity="1" fill-rule="nonzero"/></g></g></g><g clip-path="url(#685ce376ec)"><g clip-path="url(#5aa10dcfc7)"><g clip-path="url(#e6e142a018)"><path fill="#96031a" d="M 121.957031 186.214844 C 121.957031 186.207031 121.953125 186.199219 121.953125 186.191406 C 122.03125 186.652344 122.109375 187.105469 121.957031 186.214844 " fill-opacity="1" fill-rule="nonzero"/></g></g></g><g clip-path="url(#90c2258336)"><g clip-path="url(#2d790bc91b)"><g clip-path="url(#cce79f4864)"><path fill="#96031a" d="M 122.691406 190.550781 C 122.601562 190.023438 122.640625 190.253906 122.691406 190.550781 " fill-opacity="1" fill-rule="nonzero"/></g></g></g><g clip-path="url(#4902765d2b)"><g clip-path="url(#a9d2887cc8)"><g clip-path="url(#bc4b86a395)"><path fill="#96031a" d="M 122.261719 187.957031 C 122.277344 188.078125 122.300781 188.199219 122.320312 188.320312 C 122.300781 188.199219 122.277344 188.074219 122.261719 187.957031 " fill-opacity="1" fill-rule="nonzero"/></g></g></g></svg>