<svg xmlns="http://www.w3.org/2000/svg" xmlns:xlink="http://www.w3.org/1999/xlink" zoomAndPan="magnify" preserveAspectRatio="xMidYMid meet" version="1.0" viewBox="88.33 83.59 198.35 138.34"><defs><g/><clipPath id="62ff93ca89"><path d="M 179 90 L 251 90 L 251 143 L 179 143 Z M 179 90 " clip-rule="nonzero"/></clipPath><clipPath id="d337aa473d"><path d="M 221.453125 187.492188 L 92.597656 112.183594 L 140.28125 30.59375 L 269.136719 105.90625 Z M 221.453125 187.492188 " clip-rule="nonzero"/></clipPath><clipPath id="e10f62f8c6"><path d="M 221.5 187.519531 L 92.640625 112.207031 L 140.324219 30.621094 L 269.183594 105.929688 Z M 221.5 187.519531 " clip-rule="nonzero"/></clipPath><clipPath id="fe776f9a49"><path d="M 115 120 L 116 120 L 116 121 L 115 121 Z M 115 120 " clip-rule="nonzero"/></clipPath><clipPath id="35e9b489b3"><path d="M 221.453125 187.492188 L 92.597656 112.183594 L 140.28125 30.59375 L 269.136719 105.90625 Z M 221.453125 187.492188 " clip-rule="nonzero"/></clipPath><clipPath id="8ac86b632a"><path d="M 221.5 187.519531 L 92.640625 112.207031 L 140.324219 30.621094 L 269.183594 105.929688 Z M 221.5 187.519531 " clip-rule="nonzero"/></clipPath><clipPath id="9b8d373679"><path d="M 115 121 L 116 121 L 116 122 L 115 122 Z M 115 121 " clip-rule="nonzero"/></clipPath><clipPath id="aa76fb2551"><path d="M 221.453125 187.492188 L 92.597656 112.183594 L 140.28125 30.59375 L 269.136719 105.90625 Z M 221.453125 187.492188 " clip-rule="nonzero"/></clipPath><clipPath id="564ec366b9"><path d="M 221.5 187.519531 L 92.640625 112.207031 L 140.324219 30.621094 L 269.183594 105.929688 Z M 221.5 187.519531 " clip-rule="nonzero"/></clipPath><clipPath id="aa7ec67fe1"><path d="M 115 120 L 116 120 L 116 121 L 115 121 Z M 115 120 " clip-rule="nonzero"/></clipPath><clipPath id="5236dfe6b2"><path d="M 221.453125 187.492188 L 92.597656 112.183594 L 140.28125 30.59375 L 269.136719 105.90625 Z M 221.453125 187.492188 " clip-rule="nonzero"/></clipPath><clipPath id="28ba01e0b5"><path d="M 221.5 187.519531 L 92.640625 112.207031 L 140.324219 30.621094 L 269.183594 105.929688 Z M 221.5 187.519531 " clip-rule="nonzero"/></clipPath><clipPath id="47369623cf"><path d="M 115 121 L 116 121 L 116 122 L 115 122 Z M 115 121 " clip-rule="nonzero"/></clipPath><clipPath id="33c8880985"><path d="M 221.453125 187.492188 L 92.597656 112.183594 L 140.28125 30.59375 L 269.136719 105.90625 Z M 221.453125 187.492188 " clip-rule="nonzero"/></clipPath><clipPath id="64eec22758"><path d="M 221.5 187.519531 L 92.640625 112.207031 L 140.324219 30.621094 L 269.183594 105.929688 Z M 221.5 187.519531 " clip-rule="nonzero"/></clipPath><clipPath id="7be50384e9"><path d="M 115 120 L 116 120 L 116 122 L 115 122 Z M 115 120 " clip-rule="nonzero"/></clipPath><clipPath id="f6eb36f544"><path d="M 221.453125 187.492188 L 92.597656 112.183594 L 140.28125 30.59375 L 269.136719 105.90625 Z M 221.453125 187.492188 " clip-rule="nonzero"/></clipPath><clipPath id="313b349f4a"><path d="M 221.5 187.519531 L 92.640625 112.207031 L 140.324219 30.621094 L 269.183594 105.929688 Z M 221.5 187.519531 " clip-rule="nonzero"/></clipPath><clipPath id="6e5cb0b6c1"><path d="M 116 125 L 117 125 L 117 127 L 116 127 Z M 116 125 " clip-rule="nonzero"/></clipPath><clipPath id="4162c13a8f"><path d="M 221.453125 187.492188 L 92.597656 112.183594 L 140.28125 30.59375 L 269.136719 105.90625 Z M 221.453125 187.492188 " clip-rule="nonzero"/></clipPath><clipPath id="e494259130"><path d="M 221.5 187.519531 L 92.640625 112.207031 L 140.324219 30.621094 L 269.183594 105.929688 Z M 221.5 187.519531 " clip-rule="nonzero"/></clipPath><clipPath id="94785bd0c0"><path d="M 115 119 L 116 119 L 116 121 L 115 121 Z M 115 119 " clip-rule="nonzero"/></clipPath><clipPath id="19e9804dd1"><path d="M 221.453125 187.492188 L 92.597656 112.183594 L 140.28125 30.59375 L 269.136719 105.90625 Z M 221.453125 187.492188 " clip-rule="nonzero"/></clipPath><clipPath id="bb7936a1c9"><path d="M 221.5 187.519531 L 92.640625 112.207031 L 140.324219 30.621094 L 269.183594 105.929688 Z M 221.5 187.519531 " clip-rule="nonzero"/></clipPath><clipPath id="2cfd4650e8"><path d="M 116 125 L 117 125 L 117 127 L 116 127 Z M 116 125 " clip-rule="nonzero"/></clipPath><clipPath id="8af35ac5f5"><path d="M 221.453125 187.492188 L 92.597656 112.183594 L 140.28125 30.59375 L 269.136719 105.90625 Z M 221.453125 187.492188 " clip-rule="nonzero"/></clipPath><clipPath id="97e8b214ce"><path d="M 221.5 187.519531 L 92.640625 112.207031 L 140.324219 30.621094 L 269.183594 105.929688 Z M 221.5 187.519531 " clip-rule="nonzero"/></clipPath><clipPath id="ef84b7f850"><path d="M 115 121 L 116 121 L 116 123 L 115 123 Z M 115 121 " clip-rule="nonzero"/></clipPath><clipPath id="5c0d9dcbca"><path d="M 221.453125 187.492188 L 92.597656 112.183594 L 140.28125 30.59375 L 269.136719 105.90625 Z M 221.453125 187.492188 " clip-rule="nonzero"/></clipPath><clipPath id="1be0ae1c29"><path d="M 221.5 187.519531 L 92.640625 112.207031 L 140.324219 30.621094 L 269.183594 105.929688 Z M 221.5 187.519531 " clip-rule="nonzero"/></clipPath><clipPath id="d1857483d3"><path d="M 115 123 L 117 123 L 117 125 L 115 125 Z M 115 123 " clip-rule="nonzero"/></clipPath><clipPath id="feda79823d"><path d="M 221.453125 187.492188 L 92.597656 112.183594 L 140.28125 30.59375 L 269.136719 105.90625 Z M 221.453125 187.492188 " clip-rule="nonzero"/></clipPath><clipPath id="5fe6b08fd4"><path d="M 221.5 187.519531 L 92.640625 112.207031 L 140.324219 30.621094 L 269.183594 105.929688 Z M 221.5 187.519531 " clip-rule="nonzero"/></clipPath><clipPath id="7076352655"><path d="M 115 120 L 116 120 L 116 124 L 115 124 Z M 115 120 " clip-rule="nonzero"/></clipPath><clipPath id="e8ad15b377"><path d="M 221.453125 187.492188 L 92.597656 112.183594 L 140.28125 30.59375 L 269.136719 105.90625 Z M 221.453125 187.492188 " clip-rule="nonzero"/></clipPath><clipPath id="1936afd678"><path d="M 221.5 187.519531 L 92.640625 112.207031 L 140.324219 30.621094 L 269.183594 105.929688 Z M 221.5 187.519531 " clip-rule="nonzero"/></clipPath><clipPath id="4d2bf01ece"><path d="M 115 123 L 116 123 L 116 124 L 115 124 Z M 115 123 " clip-rule="nonzero"/></clipPath><clipPath id="20d124b1f1"><path d="M 221.453125 187.492188 L 92.597656 112.183594 L 140.28125 30.59375 L 269.136719 105.90625 Z M 221.453125 187.492188 " clip-rule="nonzero"/></clipPath><clipPath id="9da9766bad"><path d="M 221.5 187.519531 L 92.640625 112.207031 L 140.324219 30.621094 L 269.183594 105.929688 Z M 221.5 187.519531 " clip-rule="nonzero"/></clipPath><clipPath id="fd50d2c6fc"><path d="M 115 123 L 117 123 L 117 126 L 115 126 Z M 115 123 " clip-rule="nonzero"/></clipPath><clipPath id="978221a7d0"><path d="M 221.453125 187.492188 L 92.597656 112.183594 L 140.28125 30.59375 L 269.136719 105.90625 Z M 221.453125 187.492188 " clip-rule="nonzero"/></clipPath><clipPath id="abe15bb521"><path d="M 221.5 187.519531 L 92.640625 112.207031 L 140.324219 30.621094 L 269.183594 105.929688 Z M 221.5 187.519531 " clip-rule="nonzero"/></clipPath><clipPath id="c5e7bcb29d"><path d="M 108 84 L 253 84 L 253 158 L 108 158 Z M 108 84 " clip-rule="nonzero"/></clipPath><clipPath id="33d4a3985e"><path d="M 221.453125 187.492188 L 92.597656 112.183594 L 140.28125 30.59375 L 269.136719 105.90625 Z M 221.453125 187.492188 " clip-rule="nonzero"/></clipPath><clipPath id="60840643c8"><path d="M 221.5 187.519531 L 92.640625 112.207031 L 140.324219 30.621094 L 269.183594 105.929688 Z M 221.5 187.519531 " clip-rule="nonzero"/></clipPath><clipPath id="a81fecc73e"><path d="M 115 122 L 116 122 L 116 124 L 115 124 Z M 115 122 " clip-rule="nonzero"/></clipPath><clipPath id="ffd755723f"><path d="M 221.453125 187.492188 L 92.597656 112.183594 L 140.28125 30.59375 L 269.136719 105.90625 Z M 221.453125 187.492188 " clip-rule="nonzero"/></clipPath><clipPath id="885ca05316"><path d="M 221.5 187.519531 L 92.640625 112.207031 L 140.324219 30.621094 L 269.183594 105.929688 Z M 221.5 187.519531 " clip-rule="nonzero"/></clipPath><clipPath id="3446798d40"><path d="M 115 122 L 116 122 L 116 123 L 115 123 Z M 115 122 " clip-rule="nonzero"/></clipPath><clipPath id="0105103c44"><path d="M 221.453125 187.492188 L 92.597656 112.183594 L 140.28125 30.59375 L 269.136719 105.90625 Z M 221.453125 187.492188 " clip-rule="nonzero"/></clipPath><clipPath id="4f59a34e2b"><path d="M 221.5 187.519531 L 92.640625 112.207031 L 140.324219 30.621094 L 269.183594 105.929688 Z M 221.5 187.519531 " clip-rule="nonzero"/></clipPath><clipPath id="06a339cb6d"><path d="M 115 120 L 116 120 L 116 121 L 115 121 Z M 115 120 " clip-rule="nonzero"/></clipPath><clipPath id="65f09c0bea"><path d="M 221.453125 187.492188 L 92.597656 112.183594 L 140.28125 30.59375 L 269.136719 105.90625 Z M 221.453125 187.492188 " clip-rule="nonzero"/></clipPath><clipPath id="2ace17fdcb"><path d="M 221.5 187.519531 L 92.640625 112.207031 L 140.324219 30.621094 L 269.183594 105.929688 Z M 221.5 187.519531 " clip-rule="nonzero"/></clipPath><clipPath id="edb6ad1663"><path d="M 116 124 L 117 124 L 117 125 L 116 125 Z M 116 124 " clip-rule="nonzero"/></clipPath><clipPath id="9a20ac8adb"><path d="M 221.453125 187.492188 L 92.597656 112.183594 L 140.28125 30.59375 L 269.136719 105.90625 Z M 221.453125 187.492188 " clip-rule="nonzero"/></clipPath><clipPath id="5cb1917f2f"><path d="M 221.5 187.519531 L 92.640625 112.207031 L 140.324219 30.621094 L 269.183594 105.929688 Z M 221.5 187.519531 " clip-rule="nonzero"/></clipPath><clipPath id="6046ddc48d"><path d="M 115 122 L 116 122 L 116 123 L 115 123 Z M 115 122 " clip-rule="nonzero"/></clipPath><clipPath id="acd399c9c7"><path d="M 221.453125 187.492188 L 92.597656 112.183594 L 140.28125 30.59375 L 269.136719 105.90625 Z M 221.453125 187.492188 " clip-rule="nonzero"/></clipPath><clipPath id="58943f86b6"><path d="M 221.5 187.519531 L 92.640625 112.207031 L 140.324219 30.621094 L 269.183594 105.929688 Z M 221.5 187.519531 " clip-rule="nonzero"/></clipPath></defs><g fill="#96031a" fill-opacity="1"><g transform="translate(86.428992, 198.095685)"><g><path d="M 8.9375 0.375 C 6.457031 0.375 4.6875 -0.148438 3.625 -1.203125 C 2.570312 -2.265625 2.019531 -4.007812 1.96875 -6.4375 C 1.9375 -8.488281 1.914062 -10.660156 1.90625 -12.953125 C 1.894531 -15.253906 1.894531 -17.554688 1.90625 -19.859375 C 1.914062 -22.160156 1.9375 -24.335938 1.96875 -26.390625 C 2 -28.515625 2.5625 -30.171875 3.65625 -31.359375 C 4.75 -32.554688 6.507812 -33.15625 8.9375 -33.15625 C 11.351562 -33.15625 13.097656 -32.628906 14.171875 -31.578125 C 15.253906 -30.523438 15.820312 -28.796875 15.875 -26.390625 C 15.90625 -25.648438 15.921875 -24.742188 15.921875 -23.671875 C 15.921875 -22.609375 15.90625 -21.707031 15.875 -20.96875 L 11.453125 -20.96875 C 11.453125 -21.875 11.457031 -22.898438 11.46875 -24.046875 C 11.476562 -25.191406 11.472656 -26.226562 11.453125 -27.15625 C 11.421875 -28.71875 10.582031 -29.5 8.9375 -29.5 C 7.300781 -29.5 6.457031 -28.71875 6.40625 -27.15625 C 6.320312 -23.6875 6.28125 -20.101562 6.28125 -16.40625 C 6.28125 -12.71875 6.320312 -9.132812 6.40625 -5.65625 C 6.457031 -4.070312 7.300781 -3.28125 8.9375 -3.28125 C 10.695312 -3.28125 11.585938 -4.070312 11.609375 -5.65625 C 11.640625 -6.613281 11.65625 -7.6875 11.65625 -8.875 C 11.65625 -10.070312 11.640625 -11.132812 11.609375 -12.0625 L 16.046875 -12.0625 C 16.066406 -11.15625 16.078125 -10.222656 16.078125 -9.265625 C 16.078125 -8.316406 16.066406 -7.375 16.046875 -6.4375 C 15.992188 -4.007812 15.410156 -2.265625 14.296875 -1.203125 C 13.191406 -0.148438 11.40625 0.375 8.9375 0.375 Z M 8.9375 0.375 "/></g></g></g><g fill="#96031a" fill-opacity="1"><g transform="translate(105.829948, 198.095685)"><g><path d="M 1.890625 0 L 1.890625 -32.828125 L 6.359375 -32.828125 L 6.359375 0 Z M 1.890625 0 "/></g></g></g><g fill="#96031a" fill-opacity="1"><g transform="translate(116.166451, 198.095685)"><g><path d="M 1.890625 0 L 1.890625 -32.828125 L 8.78125 -32.828125 L 10.921875 -22.40625 L 13.578125 -3.9375 L 14.53125 -3.9375 L 13.75 -20.015625 L 13.421875 -32.828125 L 17.71875 -32.828125 L 17.71875 0 L 10.546875 0 L 8.328125 -11.25 L 6.15625 -28.921875 L 5.125 -28.921875 L 5.828125 -12.515625 L 6.203125 0 Z M 1.890625 0 "/></g></g></g><g fill="#96031a" fill-opacity="1"><g transform="translate(137.864282, 198.095685)"><g><path d="M 1.890625 0 L 1.890625 -32.828125 L 13.625 -32.828125 L 13.625 -28.890625 L 6.359375 -28.890625 L 6.359375 -18.59375 L 13.21875 -18.59375 L 13.21875 -14.640625 L 6.359375 -14.640625 L 6.359375 -3.9375 L 13.625 -3.9375 L 13.625 0 Z M 1.890625 0 "/></g></g></g><g fill="#96031a" fill-opacity="1"><g transform="translate(154.681253, 198.095685)"><g><path d="M 1.890625 0 L 1.890625 -32.828125 L 9.484375 -32.828125 L 11.6875 -19.90625 L 12.765625 -3.984375 L 13.65625 -3.984375 L 14.640625 -19.90625 L 16.90625 -32.828125 L 24.453125 -32.828125 L 24.453125 0 L 20.015625 0 L 20.015625 -9.921875 L 20.796875 -28.890625 L 19.859375 -28.890625 L 17.8125 -9.5625 L 15.875 -0.078125 L 10.46875 -0.078125 L 8.578125 -9.5625 L 6.53125 -28.890625 L 5.578125 -28.890625 L 6.359375 -9.8125 L 6.359375 0 Z M 1.890625 0 "/></g></g></g><g fill="#96031a" fill-opacity="1"><g transform="translate(183.105651, 198.095685)"><g><path d="M 0.9375 0 L 4.96875 -32.828125 L 12.34375 -32.828125 L 16.375 0 L 11.859375 0 L 11.078125 -8.203125 L 6.28125 -8.203125 L 5.5 0 Z M 6.6875 -12.109375 L 10.625 -12.109375 L 9.921875 -19.328125 L 9.234375 -28.890625 L 8.078125 -28.890625 L 7.390625 -19.328125 Z M 6.6875 -12.109375 "/></g></g></g><g fill="#96031a" fill-opacity="1"><g transform="translate(202.383566, 198.095685)"><g><path d="M 5.703125 0 L 5.703125 -28.890625 L 0.9375 -28.890625 L 0.9375 -32.828125 L 14.859375 -32.828125 L 14.859375 -28.890625 L 10.140625 -28.890625 L 10.140625 0 Z M 5.703125 0 "/></g></g></g><g fill="#96031a" fill-opacity="1"><g transform="translate(220.26695, 198.095685)"><g><path d="M 1.890625 0 L 1.890625 -32.828125 L 8.375 -32.828125 C 10.800781 -32.828125 12.566406 -32.304688 13.671875 -31.265625 C 14.785156 -30.222656 15.382812 -28.523438 15.46875 -26.171875 C 15.519531 -24.671875 15.546875 -23.34375 15.546875 -22.1875 C 15.546875 -21.039062 15.519531 -19.800781 15.46875 -18.46875 C 15.363281 -15.40625 14.351562 -13.4375 12.4375 -12.5625 L 16 0 L 11.28125 0 L 8.25 -11.8125 L 6.359375 -11.8125 L 6.359375 0 Z M 6.359375 -15.75 L 8.328125 -15.75 C 10.054688 -15.75 10.957031 -16.570312 11.03125 -18.21875 C 11.175781 -20.957031 11.175781 -23.679688 11.03125 -26.390625 C 10.957031 -28.054688 10.070312 -28.890625 8.375 -28.890625 L 6.359375 -28.890625 Z M 6.359375 -15.75 "/></g></g></g><g fill="#96031a" fill-opacity="1"><g transform="translate(239.339786, 198.095685)"><g><path d="M 0.9375 0 L 4.96875 -32.828125 L 12.34375 -32.828125 L 16.375 0 L 11.859375 0 L 11.078125 -8.203125 L 6.28125 -8.203125 L 5.5 0 Z M 6.6875 -12.109375 L 10.625 -12.109375 L 9.921875 -19.328125 L 9.234375 -28.890625 L 8.078125 -28.890625 L 7.390625 -19.328125 Z M 6.6875 -12.109375 "/></g></g></g><g fill="#96031a" fill-opacity="1"><g transform="translate(258.617701, 198.095685)"><g><path d="M 1.890625 0 L 1.890625 -32.828125 L 6.359375 -32.828125 L 6.359375 0 Z M 1.890625 0 "/></g></g></g><g fill="#96031a" fill-opacity="1"><g transform="translate(268.95421, 198.095685)"><g><path d="M 1.890625 0 L 1.890625 -32.828125 L 8.78125 -32.828125 L 10.921875 -22.40625 L 13.578125 -3.9375 L 14.53125 -3.9375 L 13.75 -20.015625 L 13.421875 -32.828125 L 17.71875 -32.828125 L 17.71875 0 L 10.546875 0 L 8.328125 -11.25 L 6.15625 -28.921875 L 5.125 -28.921875 L 5.828125 -12.515625 L 6.203125 0 Z M 1.890625 0 "/></g></g></g><g clip-path="url(#62ff93ca89)"><g clip-path="url(#d337aa473d)"><g clip-path="url(#e10f62f8c6)"><path fill="#96031a" d="M 182.859375 141.152344 C 183.160156 141.691406 183.484375 142.207031 183.824219 142.710938 C 177.425781 128.820312 185.921875 110.160156 203.554688 100.210938 C 221.183594 90.261719 241.519531 92.644531 250.074219 105.324219 C 249.820312 104.769531 249.542969 104.222656 249.242188 103.6875 C 241.347656 89.65625 220.085938 86.671875 201.753906 97.015625 C 183.421875 107.363281 174.964844 127.125 182.859375 141.152344 " fill-opacity="1" fill-rule="nonzero"/></g></g></g><g clip-path="url(#fe776f9a49)"><g clip-path="url(#35e9b489b3)"><g clip-path="url(#8ac86b632a)"><path fill="#96031a" d="M 115.449219 120.742188 C 115.453125 120.773438 115.457031 120.804688 115.464844 120.835938 C 115.457031 120.804688 115.453125 120.773438 115.449219 120.742188 " fill-opacity="1" fill-rule="nonzero"/></g></g></g><g clip-path="url(#9b8d373679)"><g clip-path="url(#aa76fb2551)"><g clip-path="url(#564ec366b9)"><path fill="#96031a" d="M 115.535156 121.242188 C 115.546875 121.3125 115.558594 121.382812 115.570312 121.453125 C 115.558594 121.382812 115.546875 121.3125 115.535156 121.242188 " fill-opacity="1" fill-rule="nonzero"/></g></g></g><g clip-path="url(#aa7ec67fe1)"><g clip-path="url(#5236dfe6b2)"><g clip-path="url(#28ba01e0b5)"><path fill="#96031a" d="M 115.445312 120.722656 C 115.417969 120.578125 115.394531 120.4375 115.367188 120.296875 L 115.359375 120.246094 C 115.359375 120.25 115.359375 120.257812 115.363281 120.261719 C 115.390625 120.417969 115.417969 120.578125 115.449219 120.742188 C 115.445312 120.734375 115.445312 120.730469 115.445312 120.722656 " fill-opacity="1" fill-rule="nonzero"/></g></g></g><g clip-path="url(#47369623cf)"><g clip-path="url(#33c8880985)"><g clip-path="url(#64eec22758)"><path fill="#96031a" d="M 115.570312 121.453125 C 115.589844 121.5625 115.609375 121.667969 115.625 121.777344 C 115.609375 121.667969 115.589844 121.558594 115.570312 121.453125 " fill-opacity="1" fill-rule="nonzero"/></g></g></g><g clip-path="url(#7be50384e9)"><g clip-path="url(#f6eb36f544)"><g clip-path="url(#313b349f4a)"><path fill="#96031a" d="M 115.464844 120.835938 C 115.488281 120.96875 115.511719 121.105469 115.535156 121.242188 C 115.511719 121.105469 115.488281 120.96875 115.464844 120.835938 " fill-opacity="1" fill-rule="nonzero"/></g></g></g><g clip-path="url(#6e5cb0b6c1)"><g clip-path="url(#4162c13a8f)"><g clip-path="url(#e494259130)"><path fill="#96031a" d="M 116.335938 126.03125 L 116.34375 126.027344 L 116.351562 126.027344 C 116.355469 126.027344 116.359375 126.027344 116.363281 126.023438 L 116.332031 125.851562 C 116.320312 125.859375 116.316406 125.867188 116.3125 125.875 C 116.320312 125.925781 116.328125 125.976562 116.335938 126.03125 " fill-opacity="1" fill-rule="nonzero"/></g></g></g><g clip-path="url(#94785bd0c0)"><g clip-path="url(#19e9804dd1)"><g clip-path="url(#bb7936a1c9)"><path fill="#96031a" d="M 115.355469 120.210938 C 115.355469 120.21875 115.355469 120.226562 115.355469 120.234375 C 115.277344 119.761719 115.195312 119.277344 115.355469 120.210938 " fill-opacity="1" fill-rule="nonzero"/></g></g></g><g clip-path="url(#2cfd4650e8)"><g clip-path="url(#8af35ac5f5)"><g clip-path="url(#97e8b214ce)"><path fill="#96031a" d="M 116.445312 126.039062 C 116.457031 126.03125 116.472656 126.023438 116.488281 126.015625 C 116.496094 126.007812 116.53125 125.992188 116.511719 125.996094 C 116.5 126 116.480469 126.003906 116.460938 126.007812 C 116.441406 126.011719 116.417969 126.015625 116.390625 126.019531 C 116.382812 126.023438 116.375 126.023438 116.363281 126.023438 L 116.375 126.082031 C 116.375 126.082031 116.398438 126.066406 116.445312 126.039062 " fill-opacity="1" fill-rule="nonzero"/></g></g></g><g clip-path="url(#ef84b7f850)"><g clip-path="url(#5c0d9dcbca)"><g clip-path="url(#1be0ae1c29)"><path fill="#96031a" d="M 115.625 121.777344 C 115.636719 121.851562 115.652344 121.925781 115.664062 122.003906 C 115.652344 121.925781 115.636719 121.851562 115.625 121.777344 " fill-opacity="1" fill-rule="nonzero"/></g></g></g><g clip-path="url(#d1857483d3)"><g clip-path="url(#feda79823d)"><g clip-path="url(#5fe6b08fd4)"><path fill="#96031a" d="M 116.03125 124.316406 C 116.011719 124.1875 115.992188 124.0625 115.972656 123.9375 C 115.992188 124.0625 116.011719 124.1875 116.03125 124.316406 " fill-opacity="1" fill-rule="nonzero"/></g></g></g><g clip-path="url(#7076352655)"><g clip-path="url(#e8ad15b377)"><g clip-path="url(#1936afd678)"><path fill="#96031a" d="M 115.355469 120.210938 C 115.351562 120.210938 115.351562 120.210938 115.351562 120.207031 L 115.351562 120.199219 C 115.554688 121.414062 115.714844 122.339844 115.832031 123.050781 C 115.832031 123.046875 115.832031 123.042969 115.832031 123.042969 C 115.585938 121.578125 115.4375 120.699219 115.355469 120.210938 " fill-opacity="1" fill-rule="nonzero"/></g></g></g><g clip-path="url(#4d2bf01ece)"><g clip-path="url(#20d124b1f1)"><g clip-path="url(#9da9766bad)"><path fill="#96031a" d="M 115.941406 123.738281 C 115.953125 123.804688 115.960938 123.871094 115.972656 123.9375 C 115.964844 123.886719 115.957031 123.832031 115.949219 123.78125 C 115.945312 123.765625 115.941406 123.753906 115.941406 123.738281 " fill-opacity="1" fill-rule="nonzero"/><path fill="#96031a" d="M 115.832031 123.050781 C 115.867188 123.277344 115.90625 123.503906 115.941406 123.738281 C 115.914062 123.546875 115.882812 123.359375 115.855469 123.175781 C 115.847656 123.132812 115.839844 123.089844 115.832031 123.050781 " fill-opacity="1" fill-rule="nonzero"/></g></g></g><g clip-path="url(#fd50d2c6fc)"><g clip-path="url(#978221a7d0)"><g clip-path="url(#abe15bb521)"><path fill="#96031a" d="M 116.09375 124.597656 C 116.007812 124.070312 115.925781 123.59375 115.851562 123.167969 C 115.855469 123.167969 115.855469 123.171875 115.855469 123.175781 C 115.964844 123.839844 116.042969 124.296875 116.09375 124.597656 L 116.085938 124.609375 C 116.085938 124.613281 116.078125 124.617188 116.074219 124.625 L 116.046875 124.433594 C 116.042969 124.394531 116.035156 124.355469 116.03125 124.316406 C 116.042969 124.417969 116.058594 124.519531 116.074219 124.625 C 116.070312 124.628906 116.066406 124.636719 116.074219 124.640625 L 116.078125 124.644531 C 116.082031 124.675781 116.085938 124.703125 116.09375 124.734375 C 116.144531 125.117188 116.199219 125.507812 116.257812 125.90625 L 116.265625 125.96875 L 116.269531 125.964844 L 116.273438 125.957031 C 116.277344 125.945312 116.285156 125.933594 116.289062 125.921875 C 116.296875 125.910156 116.300781 125.890625 116.3125 125.875 C 116.253906 125.519531 116.191406 125.179688 116.140625 124.863281 C 116.125 124.78125 116.109375 124.683594 116.09375 124.597656 " fill-opacity="1" fill-rule="nonzero"/></g></g></g><g clip-path="url(#c5e7bcb29d)"><g clip-path="url(#33d4a3985e)"><g clip-path="url(#60840643c8)"><path fill="#96031a" d="M 116.917969 86.238281 C 117.226562 86.269531 117.636719 86.3125 118.046875 86.355469 C 118.460938 86.394531 118.859375 86.457031 119.160156 86.496094 C 119.464844 86.539062 119.664062 86.566406 119.664062 86.566406 L 119.492188 92.4375 C 119.492188 92.4375 119.308594 92.417969 119.039062 92.386719 C 118.765625 92.359375 118.40625 92.3125 118.035156 92.289062 C 117.667969 92.257812 117.300781 92.230469 117.023438 92.207031 C 116.75 92.1875 116.5625 92.179688 116.5625 92.179688 L 116.398438 86.191406 C 116.398438 86.191406 116.613281 86.203125 116.917969 86.238281 Z M 123.542969 87.261719 C 123.835938 87.320312 124.222656 87.410156 124.609375 87.503906 C 124.992188 87.597656 125.375 87.691406 125.664062 87.761719 C 125.808594 87.796875 125.929688 87.828125 126.011719 87.847656 C 126.097656 87.871094 126.144531 87.882812 126.144531 87.882812 L 125.359375 93.457031 C 125.359375 93.457031 125.316406 93.445312 125.238281 93.429688 C 125.164062 93.414062 125.054688 93.386719 124.925781 93.359375 C 124.664062 93.304688 124.3125 93.230469 123.964844 93.15625 C 123.613281 93.082031 123.261719 93.011719 122.996094 92.96875 C 122.730469 92.917969 122.554688 92.890625 122.554688 92.890625 L 123.054688 87.164062 C 123.054688 87.164062 123.25 87.203125 123.542969 87.261719 Z M 129.835938 88.988281 C 130.117188 89.078125 130.484375 89.199219 130.851562 89.335938 C 131.582031 89.605469 132.3125 89.875 132.3125 89.875 L 130.992188 95.097656 C 130.992188 95.097656 130.324219 94.871094 129.65625 94.648438 C 129.320312 94.53125 128.980469 94.433594 128.726562 94.359375 C 128.472656 94.285156 128.304688 94.234375 128.304688 94.234375 L 129.371094 88.835938 C 129.371094 88.835938 129.558594 88.898438 129.835938 88.988281 Z M 131.730469 96.605469 C 132.121094 96.75 132.542969 96.90625 132.988281 97.078125 C 133.433594 97.25 133.894531 97.453125 134.371094 97.652344 C 135.332031 98.042969 136.324219 98.539062 137.3125 99.011719 C 137.804688 99.261719 138.289062 99.527344 138.761719 99.78125 C 139.238281 100.035156 139.707031 100.285156 140.140625 100.554688 C 141.019531 101.085938 141.84375 101.5625 142.515625 102.027344 C 143.191406 102.480469 143.757812 102.851562 144.140625 103.128906 C 144.519531 103.410156 144.734375 103.570312 144.734375 103.570312 C 145.152344 103.878906 145.402344 104.367188 145.460938 104.894531 C 145.519531 105.417969 145.390625 105.988281 145.0625 106.480469 L 137.640625 117.78125 C 136.992188 118.753906 135.945312 119.328125 135.324219 119.046875 C 135.324219 119.046875 135.160156 118.972656 134.875 118.839844 C 134.589844 118.714844 134.167969 118.5625 133.675781 118.363281 C 133.1875 118.152344 132.589844 117.976562 131.96875 117.761719 C 131.660156 117.648438 131.332031 117.558594 131 117.46875 C 130.667969 117.375 130.335938 117.273438 130 117.1875 C 129.316406 117.039062 128.652344 116.855469 128.011719 116.753906 C 127.691406 116.699219 127.390625 116.632812 127.097656 116.589844 C 126.808594 116.546875 126.53125 116.507812 126.277344 116.472656 C 125.773438 116.390625 125.34375 116.371094 125.050781 116.335938 C 124.753906 116.308594 124.585938 116.289062 124.585938 116.289062 C 124.257812 116.269531 124.019531 115.976562 123.890625 115.507812 C 123.761719 115.035156 123.734375 114.394531 123.863281 113.695312 L 126.753906 97.699219 C 126.878906 97.003906 127.195312 96.425781 127.621094 96.066406 C 128.042969 95.703125 128.574219 95.554688 129.089844 95.710938 C 129.089844 95.710938 129.355469 95.796875 129.820312 95.949219 C 130.28125 96.105469 130.949219 96.300781 131.730469 96.605469 Z M 136.773438 91.804688 C 137.121094 91.96875 137.464844 92.132812 137.71875 92.269531 C 137.972656 92.402344 138.144531 92.492188 138.144531 92.492188 L 136.359375 97.3125 C 136.359375 97.3125 136.203125 97.238281 135.96875 97.125 C 135.734375 97.003906 135.414062 96.863281 135.09375 96.726562 C 134.449219 96.449219 133.808594 96.171875 133.808594 96.171875 L 135.375 91.152344 C 135.375 91.152344 136.074219 91.480469 136.773438 91.804688 Z M 141.417969 94.316406 C 141.660156 94.460938 141.988281 94.648438 142.308594 94.851562 C 142.941406 95.265625 143.574219 95.675781 143.574219 95.675781 L 141.398438 100.0625 C 141.398438 100.0625 140.808594 99.703125 140.21875 99.347656 C 139.921875 99.167969 139.617188 99.007812 139.390625 98.882812 C 139.164062 98.757812 139.007812 98.671875 139.007812 98.671875 L 141.007812 94.074219 C 141.007812 94.074219 141.167969 94.171875 141.417969 94.316406 Z M 146.578125 97.796875 C 146.6875 97.882812 146.824219 97.976562 146.960938 98.082031 C 147.09375 98.191406 147.242188 98.308594 147.386719 98.421875 C 147.960938 98.890625 148.535156 99.355469 148.535156 99.355469 L 146.050781 103.285156 C 146.050781 103.285156 145.507812 102.875 144.96875 102.464844 C 144.832031 102.363281 144.695312 102.261719 144.566406 102.164062 C 144.4375 102.070312 144.3125 101.988281 144.207031 101.914062 C 143.996094 101.769531 143.855469 101.671875 143.855469 101.671875 L 146.203125 97.523438 C 146.203125 97.523438 146.351562 97.632812 146.578125 97.796875 Z M 137.054688 120.976562 C 137.054688 120.976562 137.152344 121.023438 137.300781 121.097656 C 137.375 121.136719 137.464844 121.175781 137.554688 121.222656 C 137.644531 121.273438 137.742188 121.332031 137.835938 121.386719 C 138.222656 121.605469 138.609375 121.820312 138.609375 121.820312 L 135.898438 125.292969 C 135.898438 125.292969 135.535156 125.128906 135.171875 124.964844 C 135.082031 124.925781 134.992188 124.882812 134.90625 124.84375 C 134.820312 124.808594 134.738281 124.78125 134.667969 124.753906 C 134.53125 124.703125 134.4375 124.667969 134.4375 124.667969 Z M 138.265625 118.136719 L 145.824219 107.082031 C 146.152344 106.601562 146.609375 106.292969 147.082031 106.191406 C 147.554688 106.09375 148.058594 106.195312 148.441406 106.535156 C 148.441406 106.535156 149.21875 107.25 150.386719 108.328125 C 150.945312 108.886719 151.585938 109.542969 152.269531 110.246094 C 152.445312 110.417969 152.609375 110.605469 152.773438 110.792969 C 152.941406 110.980469 153.109375 111.171875 153.277344 111.363281 C 153.617188 111.746094 153.957031 112.136719 154.300781 112.523438 C 154.472656 112.714844 154.632812 112.921875 154.792969 113.121094 C 154.949219 113.324219 155.109375 113.523438 155.269531 113.71875 C 155.578125 114.117188 155.886719 114.503906 156.183594 114.882812 C 156.488281 115.253906 156.742188 115.640625 157 115.992188 C 157.253906 116.347656 157.492188 116.683594 157.714844 116.996094 C 157.933594 117.304688 158.132812 117.589844 158.3125 117.84375 C 158.476562 118.101562 158.621094 118.324219 158.738281 118.511719 C 158.976562 118.882812 159.113281 119.09375 159.113281 119.09375 C 159.632812 119.917969 159.445312 121.027344 158.695312 121.574219 L 150.132812 127.902344 C 149.386719 128.449219 148.34375 128.453125 147.808594 127.914062 C 147.808594 127.914062 147.667969 127.773438 147.429688 127.523438 C 147.308594 127.402344 147.160156 127.25 146.992188 127.078125 C 146.816406 126.917969 146.621094 126.738281 146.402344 126.539062 C 146.1875 126.339844 145.953125 126.125 145.707031 125.898438 C 145.457031 125.675781 145.210938 125.421875 144.925781 125.199219 C 144.648438 124.96875 144.359375 124.734375 144.066406 124.492188 C 143.921875 124.371094 143.777344 124.25 143.628906 124.128906 C 143.480469 124.007812 143.335938 123.882812 143.179688 123.773438 C 142.875 123.546875 142.570312 123.324219 142.269531 123.101562 C 142.121094 122.988281 141.972656 122.878906 141.824219 122.769531 C 141.679688 122.660156 141.539062 122.554688 141.386719 122.460938 C 140.804688 122.074219 140.257812 121.714844 139.792969 121.40625 C 138.839844 120.847656 138.203125 120.472656 138.203125 120.472656 C 137.894531 120.300781 137.742188 119.972656 137.757812 119.550781 C 137.769531 119.128906 137.9375 118.621094 138.265625 118.136719 Z M 150.902344 101.421875 C 150.902344 101.421875 151.039062 101.542969 151.238281 101.726562 C 151.339844 101.820312 151.460938 101.925781 151.582031 102.042969 C 151.703125 102.164062 151.832031 102.289062 151.960938 102.417969 C 152.472656 102.929688 152.980469 103.4375 152.980469 103.4375 L 150.269531 106.90625 C 150.269531 106.90625 149.78125 106.453125 149.292969 105.996094 C 149.171875 105.882812 149.046875 105.769531 148.933594 105.664062 C 148.816406 105.558594 148.703125 105.464844 148.609375 105.382812 C 148.417969 105.222656 148.289062 105.113281 148.289062 105.113281 Z M 155.070312 105.675781 C 155.070312 105.675781 155.191406 105.808594 155.367188 106.007812 C 155.542969 106.207031 155.785156 106.46875 156.007812 106.738281 C 156.453125 107.285156 156.894531 107.832031 156.894531 107.832031 L 154.039062 110.855469 C 154.039062 110.855469 153.609375 110.359375 153.179688 109.867188 C 152.960938 109.625 152.726562 109.390625 152.558594 109.210938 C 152.386719 109.03125 152.273438 108.914062 152.273438 108.914062 Z M 158.710938 110.191406 C 158.710938 110.191406 159.113281 110.753906 159.515625 111.3125 C 159.714844 111.59375 159.921875 111.867188 160.0625 112.082031 C 160.199219 112.296875 160.292969 112.4375 160.292969 112.4375 L 157.367188 115.042969 C 157.367188 115.042969 157.277344 114.910156 157.140625 114.714844 C 157 114.519531 156.796875 114.269531 156.601562 114.015625 C 156.207031 113.503906 155.8125 112.996094 155.8125 112.996094 Z M 161.859375 114.882812 C 161.859375 114.882812 161.882812 114.917969 161.917969 114.980469 C 161.953125 115.046875 162.007812 115.136719 162.070312 115.246094 C 162.195312 115.460938 162.359375 115.75 162.527344 116.042969 C 162.855469 116.621094 163.1875 117.199219 163.1875 117.199219 L 160.261719 119.414062 L 158.925781 117.277344 Z M 161.375 122.894531 C 161.375 122.894531 161.511719 123.136719 161.71875 123.503906 C 161.921875 123.871094 162.164062 124.375 162.421875 124.871094 C 162.917969 125.859375 163.414062 126.851562 163.414062 126.851562 C 163.414062 126.851562 163.566406 127.171875 163.792969 127.660156 C 164.011719 128.152344 164.34375 128.78125 164.664062 129.429688 C 165.007812 130.054688 165.335938 130.695312 165.613281 131.152344 C 165.882812 131.617188 166.0625 131.929688 166.0625 131.929688 C 166.0625 131.929688 166.179688 132.121094 166.359375 132.410156 C 166.539062 132.699219 166.773438 133.09375 167.03125 133.46875 C 167.28125 133.847656 167.527344 134.234375 167.726562 134.511719 C 167.925781 134.789062 168.054688 134.976562 168.054688 134.976562 C 168.496094 135.613281 168.492188 136.488281 168.003906 136.960938 L 162.410156 142.328125 C 162.167969 142.5625 161.808594 142.644531 161.410156 142.59375 C 161.019531 142.539062 160.585938 142.351562 160.238281 142.027344 C 160.238281 142.027344 160.035156 141.835938 159.726562 141.546875 C 159.414062 141.261719 159.019531 140.867188 158.621094 140.46875 C 158.214844 140.078125 157.832031 139.667969 157.539062 139.363281 C 157.25 139.058594 157.054688 138.851562 157.054688 138.851562 C 157.054688 138.851562 156.757812 138.523438 156.3125 138.03125 C 155.859375 137.539062 155.296875 136.855469 154.71875 136.175781 C 154.167969 135.484375 153.601562 134.792969 153.210938 134.257812 C 152.808594 133.726562 152.539062 133.371094 152.539062 133.371094 C 152.539062 133.371094 151.960938 132.644531 151.382812 131.921875 C 151.089844 131.566406 150.8125 131.199219 150.589844 130.941406 C 150.359375 130.683594 150.210938 130.511719 150.210938 130.511719 C 149.695312 129.9375 149.882812 129.035156 150.628906 128.496094 L 159.167969 122.355469 C 159.914062 121.816406 160.90625 122.058594 161.375 122.894531 Z M 164.503906 119.699219 C 164.503906 119.699219 164.796875 120.285156 165.089844 120.867188 C 165.164062 121.015625 165.234375 121.160156 165.304688 121.296875 C 165.367188 121.433594 165.421875 121.566406 165.472656 121.675781 C 165.574219 121.898438 165.640625 122.046875 165.640625 122.046875 L 162.769531 123.910156 C 162.769531 123.910156 162.699219 123.773438 162.597656 123.566406 C 162.546875 123.464844 162.484375 123.34375 162.421875 123.214844 C 162.351562 123.085938 162.277344 122.949219 162.203125 122.816406 C 161.902344 122.273438 161.601562 121.730469 161.601562 121.730469 Z M 166.753906 124.570312 C 166.753906 124.570312 166.777344 124.628906 166.804688 124.683594 C 166.816406 124.714844 166.832031 124.742188 166.839844 124.765625 C 166.84375 124.78125 166.847656 124.792969 166.847656 124.792969 C 166.847656 124.792969 166.992188 125.183594 167.136719 125.574219 C 167.207031 125.769531 167.277344 125.96875 167.335938 126.117188 C 167.394531 126.257812 167.429688 126.355469 167.429688 126.355469 L 164.765625 128.085938 C 164.765625 128.085938 164.714844 127.984375 164.644531 127.835938 C 164.574219 127.6875 164.484375 127.484375 164.394531 127.285156 C 164.210938 126.882812 164.03125 126.480469 164.03125 126.480469 C 164.03125 126.480469 164.027344 126.46875 164.019531 126.453125 C 164.007812 126.433594 163.996094 126.40625 163.984375 126.378906 C 163.957031 126.324219 163.929688 126.269531 163.929688 126.269531 Z M 168.203125 128.21875 C 168.203125 128.21875 168.246094 128.316406 168.308594 128.460938 C 168.371094 128.605469 168.460938 128.792969 168.550781 128.984375 C 168.726562 129.363281 168.90625 129.742188 168.90625 129.742188 L 168.988281 129.90625 L 166.671875 131.703125 L 166.570312 131.539062 C 166.570312 131.539062 166.355469 131.148438 166.140625 130.765625 C 166.035156 130.570312 165.921875 130.382812 165.847656 130.234375 C 165.769531 130.085938 165.71875 129.988281 165.71875 129.988281 Z M 169.910156 131.675781 C 169.910156 131.675781 169.964844 131.777344 170.050781 131.933594 C 170.136719 132.085938 170.253906 132.285156 170.371094 132.488281 C 170.488281 132.691406 170.605469 132.894531 170.695312 133.046875 C 170.785156 133.195312 170.847656 133.292969 170.847656 133.292969 L 168.878906 135.121094 C 168.878906 135.121094 168.808594 135.023438 168.699219 134.871094 C 168.59375 134.71875 168.457031 134.515625 168.316406 134.3125 C 168.179688 134.109375 168.042969 133.90625 167.941406 133.753906 C 167.839844 133.597656 167.773438 133.492188 167.773438 133.492188 Z M 169.367188 137.285156 C 169.523438 137.308594 169.679688 137.367188 169.828125 137.453125 C 169.976562 137.542969 170.121094 137.660156 170.246094 137.808594 C 170.246094 137.808594 170.375 137.964844 170.605469 138.238281 C 170.835938 138.503906 171.175781 138.882812 171.582031 139.335938 C 172.410156 140.234375 173.5625 141.390625 174.796875 142.476562 C 176.027344 143.570312 177.339844 144.585938 178.359375 145.308594 C 178.863281 145.679688 179.300781 145.960938 179.601562 146.167969 C 179.90625 146.371094 180.082031 146.484375 180.082031 146.484375 C 180.753906 146.933594 181.179688 147.574219 181 147.960938 L 178.945312 152.394531 C 178.855469 152.585938 178.601562 152.699219 178.261719 152.722656 C 177.914062 152.753906 177.488281 152.683594 177.054688 152.519531 C 177.054688 152.519531 176.160156 152.183594 174.835938 151.605469 C 173.515625 151.027344 171.773438 150.183594 170.082031 149.21875 C 168.386719 148.261719 166.746094 147.191406 165.546875 146.335938 C 164.949219 145.902344 164.453125 145.539062 164.109375 145.277344 C 163.773438 145.011719 163.578125 144.859375 163.578125 144.859375 C 162.816406 144.28125 162.621094 143.394531 163.09375 142.929688 L 168.5 137.5625 C 168.738281 137.328125 169.054688 137.238281 169.367188 137.285156 Z M 171.9375 134.988281 C 171.9375 134.988281 172 135.089844 172.101562 135.230469 C 172.207031 135.375 172.339844 135.570312 172.476562 135.761719 C 172.613281 135.953125 172.75 136.148438 172.859375 136.289062 C 172.964844 136.429688 173.035156 136.527344 173.035156 136.527344 L 171.410156 138.34375 C 171.410156 138.34375 171.328125 138.253906 171.207031 138.109375 C 171.082031 137.972656 170.925781 137.78125 170.769531 137.585938 C 170.613281 137.394531 170.457031 137.203125 170.339844 137.058594 C 170.21875 136.917969 170.144531 136.816406 170.144531 136.816406 Z M 174.300781 138.128906 C 174.300781 138.128906 174.609375 138.496094 174.917969 138.863281 C 175.238281 139.21875 175.5625 139.578125 175.5625 139.578125 L 174.257812 141.34375 C 174.257812 141.34375 173.898438 140.996094 173.539062 140.644531 C 173.191406 140.289062 172.84375 139.929688 172.84375 139.929688 Z M 177.003906 141.070312 C 177.003906 141.070312 177.347656 141.417969 177.703125 141.75 C 177.882812 141.917969 178.0625 142.089844 178.199219 142.210938 C 178.335938 142.332031 178.425781 142.414062 178.425781 142.414062 L 177.421875 144.085938 C 177.421875 144.085938 177.320312 144.007812 177.171875 143.890625 C 177.019531 143.773438 176.828125 143.609375 176.628906 143.449219 C 176.234375 143.132812 175.855469 142.796875 175.855469 142.796875 Z M 180.28125 143.984375 C 180.425781 144.101562 180.617188 144.261719 180.816406 144.410156 C 181.015625 144.5625 181.214844 144.710938 181.367188 144.828125 C 181.515625 144.941406 181.617188 145.015625 181.617188 145.015625 L 180.875 146.550781 C 180.875 146.550781 180.769531 146.480469 180.605469 146.375 C 180.445312 146.269531 180.230469 146.125 180.015625 145.984375 C 179.800781 145.84375 179.59375 145.691406 179.433594 145.582031 C 179.277344 145.472656 179.171875 145.398438 179.171875 145.398438 L 180.039062 143.792969 C 180.039062 143.792969 180.132812 143.867188 180.28125 143.984375 Z M 183.296875 148.390625 C 183.296875 148.390625 183.339844 148.414062 183.429688 148.464844 C 183.515625 148.511719 183.644531 148.582031 183.808594 148.664062 C 184.136719 148.835938 184.609375 149.082031 185.183594 149.359375 C 186.332031 149.921875 187.898438 150.617188 189.511719 151.226562 C 191.125 151.835938 192.78125 152.363281 194.042969 152.714844 C 195.300781 153.066406 196.15625 153.269531 196.15625 153.269531 C 196.972656 153.46875 197.632812 153.753906 197.613281 153.925781 L 197.398438 155.929688 C 197.382812 156.101562 196.652344 156.242188 195.761719 156.21875 C 195.761719 156.21875 195.53125 156.210938 195.128906 156.195312 C 194.726562 156.179688 194.152344 156.148438 193.460938 156.105469 C 192.078125 156.011719 190.234375 155.824219 188.390625 155.535156 C 186.546875 155.25 184.707031 154.855469 183.335938 154.507812 C 182.648438 154.335938 182.078125 154.175781 181.679688 154.066406 C 181.480469 154.011719 181.324219 153.964844 181.21875 153.929688 C 181.109375 153.898438 181.054688 153.882812 181.054688 153.882812 C 180.171875 153.628906 179.605469 153.078125 179.777344 152.699219 L 181.703125 148.351562 C 181.875 147.96875 182.578125 148 183.296875 148.390625 Z M 184.242188 146.808594 C 184.675781 147.078125 185.109375 147.347656 185.109375 147.347656 L 184.59375 148.714844 C 184.59375 148.714844 184.136719 148.46875 183.675781 148.222656 C 183.222656 147.964844 182.769531 147.710938 182.769531 147.710938 L 183.386719 146.257812 C 183.386719 146.257812 183.8125 146.535156 184.242188 146.808594 Z M 187.945312 148.925781 C 188.410156 149.164062 188.875 149.394531 188.875 149.394531 L 188.542969 150.566406 C 188.542969 150.566406 188.058594 150.355469 187.570312 150.148438 C 187.089844 149.929688 186.609375 149.710938 186.609375 149.710938 L 187.027344 148.445312 C 187.027344 148.445312 187.484375 148.6875 187.945312 148.925781 Z M 191.21875 150.464844 C 191.402344 150.542969 191.644531 150.648438 191.890625 150.746094 C 192.136719 150.847656 192.382812 150.945312 192.566406 151.023438 C 192.75 151.09375 192.875 151.140625 192.875 151.140625 L 192.6875 152.09375 C 192.6875 152.09375 192.558594 152.050781 192.367188 151.992188 C 192.175781 151.925781 191.925781 151.839844 191.671875 151.753906 C 191.417969 151.667969 191.167969 151.574219 190.976562 151.507812 C 190.789062 151.441406 190.664062 151.394531 190.664062 151.394531 L 190.917969 150.335938 C 190.917969 150.335938 191.039062 150.386719 191.21875 150.464844 Z M 197.023438 152.96875 L 196.984375 153.300781 C 196.984375 153.300781 196.460938 153.167969 195.933594 153.039062 C 195.671875 152.96875 195.414062 152.898438 195.214844 152.847656 C 195.023438 152.792969 194.890625 152.757812 194.890625 152.757812 L 195.023438 151.925781 C 195.023438 151.925781 195.132812 151.960938 195.296875 152.019531 C 195.859375 152.355469 196.433594 152.675781 197.023438 152.96875 Z M 193.710938 141.65625 C 189.785156 139.945312 188.976562 135.386719 191.902344 131.46875 C 194.824219 127.554688 200.375 125.765625 204.300781 127.476562 C 208.222656 129.183594 209.03125 133.746094 206.105469 137.664062 C 203.183594 141.578125 197.632812 143.367188 193.710938 141.65625 Z M 195.726562 117.984375 C 196.300781 113.738281 200.699219 109.910156 205.558594 109.433594 C 210.417969 108.957031 213.894531 112.011719 213.324219 116.257812 C 212.753906 120.503906 208.351562 124.332031 203.492188 124.8125 C 198.632812 125.289062 195.15625 122.230469 195.726562 117.984375 Z M 220.429688 102.945312 C 224.921875 100.410156 230.136719 101.140625 232.070312 104.582031 C 234.003906 108.019531 231.933594 112.863281 227.4375 115.398438 C 222.945312 117.933594 217.734375 117.203125 215.796875 113.765625 C 213.863281 110.324219 215.9375 105.480469 220.429688 102.945312 Z M 230.714844 115.570312 C 233.640625 111.652344 239.191406 109.863281 243.113281 111.574219 C 247.035156 113.285156 247.847656 117.847656 244.921875 121.761719 C 242 125.679688 236.449219 127.46875 232.523438 125.757812 C 228.601562 124.046875 227.792969 119.484375 230.714844 115.570312 Z M 241.09375 135.246094 C 240.523438 139.492188 236.121094 143.324219 231.261719 143.796875 C 226.402344 144.273438 222.925781 141.21875 223.496094 136.972656 C 224.070312 132.726562 228.46875 128.898438 233.328125 128.421875 C 238.1875 127.945312 241.664062 131 241.09375 135.246094 Z M 216.390625 150.289062 C 211.898438 152.824219 206.6875 152.089844 204.75 148.652344 C 202.816406 145.214844 204.890625 140.367188 209.382812 137.832031 C 213.878906 135.296875 219.089844 136.027344 221.027344 139.46875 C 222.960938 142.90625 220.886719 147.75 216.390625 150.289062 Z M 205.125 155.789062 C 203.8125 155.953125 202.488281 156.066406 201.492188 156.125 C 200.496094 156.1875 199.828125 156.207031 199.828125 156.207031 C 198.945312 156.242188 198.242188 156.117188 198.257812 155.949219 L 198.429688 154.070312 C 198.4375 153.988281 198.617188 153.949219 198.894531 153.945312 C 199.003906 153.945312 199.132812 153.949219 199.269531 153.964844 C 201.355469 154.773438 203.59375 155.351562 205.9375 155.679688 C 205.667969 155.71875 205.398438 155.753906 205.125 155.789062 Z M 204.84375 156.183594 C 204.285156 156.285156 203.722656 156.375 203.722656 156.375 L 203.722656 156.023438 C 203.722656 156.023438 204.285156 155.960938 204.839844 155.886719 C 205.398438 155.816406 205.953125 155.730469 205.953125 155.730469 L 205.960938 155.96875 C 205.960938 155.96875 205.40625 156.082031 204.84375 156.183594 Z M 200.9375 156.765625 C 200.726562 156.789062 200.441406 156.820312 200.152344 156.851562 C 199.867188 156.878906 199.578125 156.90625 199.363281 156.925781 C 199.148438 156.945312 199.007812 156.957031 199.007812 156.957031 L 199.054688 156.363281 C 199.054688 156.363281 199.195312 156.355469 199.40625 156.347656 C 199.621094 156.339844 199.902344 156.328125 200.1875 156.3125 C 200.46875 156.296875 200.75 156.28125 200.964844 156.265625 C 201.175781 156.25 201.316406 156.242188 201.316406 156.242188 L 201.296875 156.722656 C 201.296875 156.722656 201.152344 156.738281 200.9375 156.765625 Z M 195.367188 157.15625 C 195.078125 157.164062 194.785156 157.167969 194.566406 157.171875 C 194.347656 157.175781 194.203125 157.175781 194.203125 157.175781 L 194.332031 156.339844 C 194.332031 156.339844 194.476562 156.347656 194.691406 156.355469 C 194.90625 156.363281 195.1875 156.371094 195.476562 156.378906 C 196.046875 156.386719 196.617188 156.398438 196.617188 156.398438 L 196.53125 157.117188 C 196.53125 157.117188 195.949219 157.136719 195.367188 157.15625 Z M 191.320312 157.125 C 191.101562 157.113281 190.804688 157.097656 190.511719 157.085938 C 190.214844 157.070312 189.921875 157.046875 189.699219 157.035156 C 189.476562 157.019531 189.332031 157.007812 189.332031 157.007812 L 189.582031 155.949219 C 189.582031 155.949219 189.726562 155.964844 189.941406 155.992188 C 190.15625 156.015625 190.441406 156.050781 190.730469 156.078125 C 191.015625 156.105469 191.304688 156.136719 191.519531 156.15625 C 191.734375 156.175781 191.878906 156.1875 191.878906 156.1875 L 191.691406 157.136719 C 191.691406 157.136719 191.542969 157.132812 191.320312 157.125 Z M 185.601562 156.609375 C 185.007812 156.519531 184.414062 156.429688 184.414062 156.429688 L 184.828125 155.164062 C 184.828125 155.164062 185.402344 155.277344 185.976562 155.390625 C 186.546875 155.492188 187.121094 155.59375 187.121094 155.59375 L 186.789062 156.761719 C 186.789062 156.761719 186.195312 156.6875 185.601562 156.609375 Z M 180.675781 155.695312 C 180.082031 155.550781 179.488281 155.40625 179.488281 155.40625 L 180.109375 153.953125 C 180.109375 153.953125 180.675781 154.121094 181.242188 154.285156 C 181.8125 154.4375 182.382812 154.589844 182.382812 154.589844 L 181.867188 155.957031 C 181.867188 155.957031 181.269531 155.828125 180.675781 155.695312 Z M 176.582031 154.578125 C 176.359375 154.507812 176.066406 154.414062 175.769531 154.316406 C 175.476562 154.222656 175.183594 154.117188 174.964844 154.039062 C 174.742188 153.964844 174.597656 153.910156 174.597656 153.910156 L 175.460938 152.304688 C 175.460938 152.304688 175.597656 152.359375 175.808594 152.445312 C 176.015625 152.523438 176.292969 152.640625 176.574219 152.746094 C 176.851562 152.847656 177.132812 152.953125 177.339844 153.03125 C 177.550781 153.105469 177.691406 153.15625 177.691406 153.15625 L 176.949219 154.695312 C 176.949219 154.695312 176.804688 154.648438 176.582031 154.578125 Z M 172.09375 152.949219 C 172.09375 152.949219 171.949219 152.886719 171.730469 152.796875 C 171.511719 152.707031 171.226562 152.578125 170.9375 152.453125 C 170.359375 152.203125 169.789062 151.929688 169.789062 151.929688 L 170.933594 150.203125 C 170.933594 150.203125 171.46875 150.492188 172.011719 150.75 C 172.285156 150.886719 172.550781 151.023438 172.757812 151.117188 C 172.964844 151.210938 173.101562 151.273438 173.101562 151.273438 Z M 167.351562 150.710938 C 167.351562 150.710938 166.792969 150.40625 166.230469 150.097656 C 165.675781 149.777344 165.121094 149.457031 165.121094 149.457031 L 166.578125 147.65625 C 166.578125 147.65625 167.09375 147.984375 167.609375 148.316406 C 168.132812 148.628906 168.65625 148.941406 168.65625 148.941406 Z M 162.785156 147.988281 C 162.785156 147.988281 162.652344 147.898438 162.449219 147.761719 C 162.246094 147.632812 161.980469 147.445312 161.714844 147.261719 C 161.453125 147.074219 161.1875 146.886719 160.988281 146.746094 C 160.789062 146.609375 160.660156 146.507812 160.660156 146.507812 L 162.453125 144.679688 C 162.453125 144.679688 162.566406 144.78125 162.753906 144.917969 C 162.9375 145.058594 163.179688 145.246094 163.425781 145.433594 C 163.671875 145.621094 163.914062 145.808594 164.101562 145.941406 C 164.289062 146.078125 164.414062 146.167969 164.414062 146.167969 Z M 158.453125 144.808594 C 158.453125 144.808594 158.324219 144.707031 158.132812 144.554688 C 157.945312 144.394531 157.695312 144.1875 157.449219 143.976562 C 157.199219 143.765625 156.949219 143.554688 156.761719 143.394531 C 156.582031 143.230469 156.457031 143.121094 156.457031 143.121094 L 158.59375 141.304688 C 158.59375 141.304688 158.707031 141.414062 158.875 141.574219 C 159.042969 141.730469 159.273438 141.941406 159.5 142.152344 C 159.730469 142.359375 159.957031 142.570312 160.128906 142.726562 C 160.304688 142.878906 160.421875 142.980469 160.421875 142.980469 Z M 154.398438 141.21875 L 154.210938 141.039062 C 154.210938 141.039062 153.792969 140.621094 153.378906 140.203125 C 153.171875 139.992188 152.960938 139.785156 152.808594 139.621094 C 152.65625 139.460938 152.554688 139.355469 152.554688 139.355469 L 155.039062 137.585938 C 155.039062 137.585938 155.132812 137.691406 155.269531 137.851562 C 155.40625 138.007812 155.597656 138.214844 155.789062 138.421875 C 156.164062 138.832031 156.542969 139.246094 156.542969 139.246094 L 156.714844 139.421875 Z M 150.632812 137.242188 C 150.632812 137.242188 150.535156 137.128906 150.390625 136.960938 C 150.242188 136.792969 150.058594 136.566406 149.867188 136.339844 C 149.488281 135.882812 149.109375 135.429688 149.109375 135.429688 C 149.109375 135.429688 149.097656 135.417969 149.082031 135.398438 C 149.070312 135.382812 149.050781 135.367188 149.035156 135.347656 C 149.003906 135.3125 148.972656 135.28125 148.972656 135.28125 L 151.796875 133.578125 C 151.796875 133.578125 151.828125 133.617188 151.855469 133.65625 C 151.875 133.675781 151.890625 133.695312 151.902344 133.707031 C 151.917969 133.726562 151.925781 133.738281 151.925781 133.738281 C 151.925781 133.738281 152.265625 134.1875 152.609375 134.628906 C 152.78125 134.851562 152.949219 135.074219 153.082031 135.238281 C 153.214844 135.402344 153.300781 135.511719 153.300781 135.511719 Z M 147.566406 133.796875 C 147.566406 133.796875 147.484375 133.714844 147.363281 133.585938 C 147.300781 133.519531 147.230469 133.445312 147.15625 133.363281 C 147.074219 133.289062 146.992188 133.207031 146.90625 133.128906 C 146.566406 132.808594 146.226562 132.484375 146.226562 132.484375 L 149.128906 130.453125 C 149.128906 130.453125 149.460938 130.816406 149.792969 131.179688 C 149.875 131.273438 149.957031 131.363281 150.039062 131.449219 C 150.113281 131.539062 150.179688 131.621094 150.238281 131.695312 C 150.355469 131.835938 150.433594 131.933594 150.433594 131.933594 Z M 144.769531 131.148438 L 143.394531 129.976562 L 146.324219 127.578125 L 147.695312 128.933594 Z M 141.878906 128.828125 C 141.878906 128.828125 141.792969 128.757812 141.664062 128.660156 C 141.53125 128.5625 141.347656 128.445312 141.167969 128.324219 C 140.808594 128.082031 140.449219 127.839844 140.449219 127.839844 L 143.351562 125.039062 C 143.351562 125.039062 143.714844 125.328125 144.082031 125.621094 C 144.261719 125.769531 144.453125 125.910156 144.582031 126.027344 C 144.714844 126.144531 144.804688 126.226562 144.804688 126.226562 Z M 138.90625 126.875 C 138.90625 126.875 138.546875 126.660156 138.191406 126.445312 C 138.011719 126.339844 137.824219 126.253906 137.6875 126.179688 C 137.550781 126.109375 137.457031 126.0625 137.457031 126.0625 L 140.253906 122.824219 C 140.253906 122.824219 140.351562 122.886719 140.496094 122.976562 C 140.636719 123.070312 140.832031 123.183594 141.019531 123.316406 C 141.394531 123.582031 141.765625 123.851562 141.765625 123.851562 Z M 132.875 124.097656 C 132.875 124.097656 132.515625 123.984375 132.148438 123.867188 C 132.0625 123.839844 131.96875 123.808594 131.886719 123.78125 C 131.800781 123.757812 131.71875 123.738281 131.652344 123.71875 C 131.511719 123.683594 131.421875 123.660156 131.421875 123.660156 L 133.769531 119.511719 C 133.769531 119.511719 133.871094 119.546875 134.019531 119.605469 C 134.097656 119.632812 134.1875 119.664062 134.28125 119.699219 C 134.371094 119.742188 134.46875 119.78125 134.570312 119.828125 C 134.964844 120 135.363281 120.171875 135.363281 120.171875 Z M 129.15625 123.144531 C 128.976562 123.105469 128.792969 123.089844 128.660156 123.066406 C 128.523438 123.046875 128.433594 123.035156 128.433594 123.035156 L 130.429688 118.4375 C 130.429688 118.4375 130.535156 118.460938 130.683594 118.503906 C 130.835938 118.542969 131.042969 118.589844 131.242188 118.652344 C 131.644531 118.78125 132.046875 118.90625 132.046875 118.90625 L 129.871094 123.292969 C 129.871094 123.292969 129.511719 123.21875 129.15625 123.144531 Z M 126.6875 122.828125 C 126.558594 122.808594 126.378906 122.800781 126.203125 122.796875 C 125.851562 122.777344 125.5 122.761719 125.5 122.761719 L 127.066406 117.742188 C 127.066406 117.742188 127.472656 117.808594 127.878906 117.875 C 128.085938 117.90625 128.289062 117.9375 128.441406 117.976562 C 128.589844 118.007812 128.695312 118.027344 128.695312 118.027344 L 126.910156 122.851562 C 126.910156 122.851562 126.820312 122.839844 126.6875 122.828125 Z M 123.320312 122.78125 C 123.152344 122.785156 122.980469 122.800781 122.851562 122.8125 C 122.722656 122.824219 122.640625 122.832031 122.640625 122.832031 L 123.707031 117.433594 C 123.707031 117.433594 123.808594 117.4375 123.960938 117.441406 C 124.113281 117.445312 124.316406 117.449219 124.515625 117.472656 C 124.921875 117.503906 125.328125 117.53125 125.328125 117.53125 L 124.007812 122.753906 C 124.007812 122.753906 123.664062 122.769531 123.320312 122.78125 Z M 121.144531 122.996094 C 121.109375 123.003906 121.058594 123.011719 120.996094 123.019531 C 120.871094 123.042969 120.710938 123.070312 120.546875 123.097656 C 120.382812 123.121094 120.222656 123.148438 120.101562 123.179688 C 119.980469 123.203125 119.902344 123.21875 119.902344 123.21875 L 120.402344 117.492188 C 120.402344 117.492188 120.5 117.488281 120.648438 117.476562 C 120.796875 117.460938 120.992188 117.449219 121.191406 117.445312 C 121.390625 117.4375 121.589844 117.429688 121.738281 117.421875 C 121.8125 117.417969 121.875 117.414062 121.917969 117.414062 C 121.960938 117.414062 121.988281 117.414062 121.988281 117.414062 L 121.203125 122.988281 C 121.203125 122.988281 121.183594 122.988281 121.144531 122.996094 Z M 118.378906 123.59375 C 118.269531 123.628906 118.117188 123.664062 117.976562 123.714844 C 117.835938 123.765625 117.691406 123.8125 117.585938 123.847656 C 117.480469 123.878906 117.414062 123.910156 117.414062 123.910156 L 117.253906 117.921875 C 117.253906 117.921875 117.339844 117.898438 117.480469 117.875 C 117.617188 117.851562 117.804688 117.816406 117.988281 117.785156 C 118.171875 117.746094 118.363281 117.726562 118.503906 117.703125 C 118.648438 117.683594 118.742188 117.667969 118.742188 117.667969 L 118.570312 123.539062 C 118.570312 123.539062 118.492188 123.5625 118.378906 123.59375 Z M 109.589844 86.136719 C 109.789062 86.121094 110.019531 86.101562 110.265625 86.082031 C 110.394531 86.074219 110.5 86.070312 110.617188 86.0625 C 110.730469 86.058594 110.847656 86.054688 110.964844 86.046875 C 111.078125 86.042969 111.195312 86.039062 111.308594 86.035156 C 111.417969 86.03125 111.523438 86.03125 111.625 86.027344 C 111.828125 86.023438 112.015625 86.023438 112.179688 86.019531 C 112.339844 86.015625 112.476562 86.015625 112.5625 86.015625 C 112.652344 86.019531 112.707031 86.019531 112.707031 86.019531 L 113.289062 92.109375 C 113.289062 92.109375 113.113281 92.109375 112.828125 92.121094 C 112.6875 92.125 112.523438 92.128906 112.351562 92.136719 C 112.261719 92.140625 112.171875 92.144531 112.078125 92.148438 C 111.980469 92.152344 111.878906 92.160156 111.78125 92.164062 C 111.578125 92.179688 111.394531 92.1875 111.1875 92.207031 C 110.980469 92.222656 110.789062 92.242188 110.625 92.257812 C 110.421875 92.285156 110.253906 92.304688 110.136719 92.320312 C 110.128906 92.320312 110.121094 92.324219 110.117188 92.324219 L 110.109375 92.324219 C 110.105469 92.324219 110.105469 92.324219 110.101562 92.324219 C 110.097656 92.328125 110.09375 92.328125 110.09375 92.328125 L 110.339844 93.664062 C 110.339844 93.664062 110.347656 93.664062 110.351562 93.664062 C 110.367188 93.660156 110.351562 93.660156 110.449219 93.648438 C 110.597656 93.628906 110.851562 93.59375 111.070312 93.574219 C 111.1875 93.566406 111.320312 93.550781 111.460938 93.539062 C 111.59375 93.53125 111.734375 93.519531 111.882812 93.507812 C 112.03125 93.5 112.199219 93.488281 112.355469 93.480469 C 112.515625 93.472656 112.683594 93.464844 112.859375 93.460938 C 114.246094 93.402344 115.976562 93.429688 117.667969 93.558594 C 119.359375 93.683594 121.011719 93.894531 122.234375 94.105469 C 122.847656 94.207031 123.359375 94.292969 123.710938 94.371094 C 124.066406 94.441406 124.265625 94.484375 124.265625 94.484375 C 124.535156 94.539062 124.777344 94.664062 124.988281 94.839844 C 125.199219 95.019531 125.375 95.261719 125.511719 95.53125 C 125.785156 96.078125 125.886719 96.765625 125.773438 97.472656 L 123.179688 113.648438 C 123.066406 114.355469 122.824219 114.988281 122.539062 115.445312 C 122.394531 115.675781 122.242188 115.859375 122.082031 115.988281 C 121.925781 116.125 121.761719 116.203125 121.601562 116.203125 C 121.601562 116.203125 121.476562 116.207031 121.265625 116.210938 C 121.054688 116.207031 120.75 116.230469 120.386719 116.246094 C 119.664062 116.28125 118.710938 116.378906 117.792969 116.515625 C 116.875 116.65625 115.996094 116.847656 115.441406 117.015625 C 115.375 117.035156 115.3125 117.054688 115.25 117.070312 C 115.183594 117.089844 115.144531 117.109375 115.09375 117.125 C 115.046875 117.144531 115.003906 117.15625 114.964844 117.171875 C 114.9375 117.183594 114.910156 117.195312 114.890625 117.207031 C 114.828125 117.238281 114.859375 117.226562 114.851562 117.226562 C 114.777344 117.265625 114.734375 117.285156 114.734375 117.285156 L 114.988281 118.621094 C 114.988281 118.621094 115.03125 118.597656 115.105469 118.5625 C 115.097656 118.5625 115.089844 118.566406 115.074219 118.566406 C 115.097656 118.554688 115.125 118.535156 115.152344 118.519531 C 115.183594 118.5 115.25 118.476562 115.296875 118.453125 L 115.375 118.421875 C 115.402344 118.410156 115.4375 118.402344 115.464844 118.390625 C 115.527344 118.371094 115.582031 118.351562 115.632812 118.335938 C 115.726562 118.300781 115.800781 118.28125 115.800781 118.28125 L 116.386719 124.371094 C 116.386719 124.371094 116.375 124.378906 116.355469 124.386719 C 116.332031 124.398438 116.3125 124.414062 116.285156 124.433594 C 116.257812 124.453125 116.226562 124.476562 116.191406 124.5 C 116.175781 124.511719 116.15625 124.523438 116.140625 124.535156 L 116.113281 124.574219 L 116.09375 124.597656 C 116.101562 124.625 116.105469 124.65625 116.109375 124.691406 L 116.113281 124.6875 L 116.132812 124.6875 L 116.15625 124.683594 C 116.167969 124.679688 116.183594 124.675781 116.195312 124.675781 C 116.222656 124.667969 116.246094 124.664062 116.261719 124.660156 C 116.273438 124.65625 116.253906 124.667969 116.246094 124.675781 C 116.234375 124.679688 116.222656 124.6875 116.214844 124.691406 C 116.195312 124.703125 116.179688 124.714844 116.164062 124.71875 C 116.140625 124.734375 116.125 124.742188 116.125 124.742188 L 116.332031 125.851562 C 116.335938 125.847656 116.335938 125.847656 116.34375 125.839844 C 116.378906 125.8125 116.414062 125.777344 116.453125 125.746094 C 116.5 125.707031 116.5625 125.671875 116.625 125.632812 C 116.65625 125.613281 116.6875 125.589844 116.722656 125.570312 C 116.761719 125.550781 116.800781 125.53125 116.839844 125.507812 C 116.921875 125.46875 117.011719 125.421875 117.101562 125.375 C 117.300781 125.289062 117.511719 125.183594 117.769531 125.09375 C 118.265625 124.894531 118.882812 124.703125 119.582031 124.523438 C 119.757812 124.480469 119.941406 124.433594 120.125 124.390625 C 120.3125 124.351562 120.503906 124.3125 120.699219 124.273438 C 120.796875 124.253906 120.898438 124.230469 120.996094 124.210938 C 121.097656 124.199219 121.199219 124.179688 121.304688 124.164062 C 121.511719 124.132812 121.722656 124.097656 121.9375 124.066406 C 122.363281 124.023438 122.816406 123.949219 123.277344 123.929688 C 123.507812 123.914062 123.746094 123.890625 123.980469 123.878906 C 124.222656 123.875 124.464844 123.867188 124.707031 123.863281 C 124.957031 123.847656 125.199219 123.859375 125.449219 123.863281 C 125.703125 123.871094 125.957031 123.871094 126.214844 123.882812 C 126.472656 123.902344 126.730469 123.917969 126.988281 123.9375 C 127.121094 123.945312 127.253906 123.949219 127.386719 123.964844 L 127.78125 124.015625 C 128.046875 124.046875 128.316406 124.078125 128.585938 124.109375 C 128.855469 124.15625 129.125 124.203125 129.390625 124.25 C 129.945312 124.328125 130.480469 124.476562 131.039062 124.597656 C 133.25 125.132812 135.496094 126.027344 137.59375 127.140625 C 139.695312 128.246094 141.609375 129.617188 143.238281 130.902344 C 143.644531 131.234375 144.03125 131.550781 144.398438 131.855469 C 144.492188 131.929688 144.585938 132.003906 144.675781 132.082031 C 144.761719 132.164062 144.847656 132.242188 144.929688 132.320312 C 145.097656 132.476562 145.261719 132.625 145.421875 132.773438 C 145.746094 133.070312 146.046875 133.34375 146.324219 133.601562 C 146.394531 133.667969 146.464844 133.726562 146.53125 133.789062 C 146.597656 133.855469 146.660156 133.921875 146.71875 133.984375 C 146.84375 134.109375 146.960938 134.226562 147.070312 134.34375 C 147.519531 134.800781 147.871094 135.160156 148.113281 135.40625 C 148.234375 135.53125 148.328125 135.625 148.390625 135.6875 C 148.421875 135.722656 148.445312 135.746094 148.460938 135.761719 C 148.480469 135.785156 148.492188 135.796875 148.492188 135.796875 C 148.492188 135.796875 148.800781 136.164062 149.269531 136.714844 C 149.722656 137.269531 150.378906 137.980469 151.015625 138.691406 C 151.679688 139.390625 152.328125 140.089844 152.847656 140.589844 C 153.359375 141.09375 153.699219 141.429688 153.699219 141.429688 C 153.699219 141.429688 153.890625 141.609375 154.242188 141.9375 C 154.417969 142.101562 154.636719 142.304688 154.890625 142.546875 C 155.148438 142.78125 155.453125 143.046875 155.789062 143.34375 C 157.140625 144.53125 159.128906 146.164062 161.65625 147.875 C 162.925781 148.722656 164.316406 149.597656 165.828125 150.433594 C 167.34375 151.265625 168.964844 152.074219 170.667969 152.808594 C 174.074219 154.285156 177.804688 155.457031 181.535156 156.210938 C 185.265625 156.976562 188.996094 157.316406 192.433594 157.363281 C 194.15625 157.378906 195.804688 157.328125 197.355469 157.222656 C 198.90625 157.117188 200.359375 156.957031 201.6875 156.773438 C 203.761719 156.484375 205.527344 156.128906 206.914062 155.804688 C 214.695312 156.667969 223.523438 154.90625 231.726562 150.277344 C 248.800781 140.640625 256.683594 122.234375 249.328125 109.167969 C 241.976562 96.097656 222.171875 93.316406 205.097656 102.953125 C 188.019531 112.589844 180.140625 130.996094 187.496094 144.066406 C 189.230469 147.152344 191.664062 149.664062 194.59375 151.574219 C 194.253906 151.453125 193.914062 151.324219 193.574219 151.195312 C 190.683594 150.070312 187.75 148.640625 185.066406 146.949219 C 182.378906 145.265625 179.945312 143.335938 177.921875 141.359375 C 176.90625 140.371094 175.988281 139.375 175.167969 138.40625 C 174.347656 137.433594 173.636719 136.476562 173.003906 135.585938 C 171.757812 133.789062 170.871094 132.222656 170.289062 131.113281 C 170.148438 130.832031 170.015625 130.589844 169.90625 130.371094 C 169.800781 130.148438 169.710938 129.964844 169.640625 129.8125 C 169.492188 129.511719 169.417969 129.351562 169.417969 129.351562 C 169.417969 129.351562 169.28125 129.046875 169.078125 128.589844 C 168.867188 128.144531 168.621094 127.519531 168.367188 126.914062 C 168.136719 126.285156 167.890625 125.679688 167.734375 125.203125 C 167.574219 124.734375 167.464844 124.421875 167.464844 124.421875 C 167.464844 124.421875 167.460938 124.410156 167.453125 124.390625 C 167.441406 124.363281 167.425781 124.320312 167.398438 124.261719 C 167.351562 124.148438 167.28125 123.984375 167.1875 123.765625 C 167 123.332031 166.722656 122.691406 166.371094 121.878906 C 166.28125 121.675781 166.191406 121.460938 166.089844 121.238281 C 166.042969 121.125 165.992188 121.007812 165.941406 120.890625 C 165.882812 120.773438 165.824219 120.65625 165.765625 120.53125 C 165.527344 120.046875 165.265625 119.519531 164.992188 118.957031 C 164.851562 118.675781 164.707031 118.386719 164.558594 118.085938 C 164.480469 117.933594 164.40625 117.785156 164.332031 117.628906 C 164.253906 117.472656 164.164062 117.320312 164.078125 117.164062 C 163.726562 116.539062 163.359375 115.882812 162.976562 115.195312 C 161.382812 112.46875 159.339844 109.292969 156.65625 106.085938 C 155.976562 105.289062 155.261719 104.496094 154.539062 103.679688 C 153.792969 102.882812 153.003906 102.097656 152.210938 101.296875 C 151.800781 100.90625 151.375 100.527344 150.957031 100.140625 C 150.53125 99.753906 150.109375 99.363281 149.667969 98.984375 C 149.21875 98.613281 148.769531 98.242188 148.320312 97.871094 C 147.867188 97.5 147.414062 97.125 146.9375 96.777344 C 145.988281 96.078125 145.042969 95.355469 144.042969 94.714844 C 143.546875 94.386719 143.054688 94.054688 142.554688 93.734375 C 142.042969 93.425781 141.53125 93.121094 141.023438 92.820312 C 140.765625 92.667969 140.511719 92.515625 140.257812 92.367188 C 140 92.21875 139.738281 92.082031 139.476562 91.941406 C 138.953125 91.664062 138.433594 91.386719 137.914062 91.113281 C 137.394531 90.84375 136.863281 90.601562 136.339844 90.347656 C 135.8125 90.097656 135.289062 89.84375 134.757812 89.628906 C 134.226562 89.402344 133.703125 89.179688 133.179688 88.960938 C 132.65625 88.746094 132.125 88.554688 131.605469 88.359375 C 130.5625 87.953125 129.519531 87.628906 128.5 87.292969 C 127.992188 87.140625 127.484375 86.996094 126.980469 86.851562 C 126.730469 86.78125 126.480469 86.710938 126.230469 86.640625 C 125.980469 86.574219 125.734375 86.511719 125.488281 86.453125 C 124.996094 86.328125 124.511719 86.207031 124.03125 86.09375 C 123.550781 85.992188 123.074219 85.894531 122.609375 85.792969 C 120.742188 85.417969 118.996094 85.152344 117.402344 84.984375 C 116.613281 84.890625 115.84375 84.839844 115.140625 84.785156 C 114.777344 84.765625 114.429688 84.746094 114.101562 84.730469 C 113.933594 84.722656 113.769531 84.714844 113.613281 84.707031 C 113.449219 84.703125 113.289062 84.699219 113.132812 84.695312 C 111.90625 84.664062 110.828125 84.699219 110.011719 84.75 C 109.792969 84.765625 109.601562 84.78125 109.4375 84.792969 C 109.363281 84.796875 109.25 84.8125 109.164062 84.820312 C 109.074219 84.832031 108.992188 84.839844 108.921875 84.847656 C 108.847656 84.855469 108.785156 84.863281 108.730469 84.871094 C 108.710938 84.871094 108.707031 84.871094 108.707031 84.871094 L 108.953125 86.210938 C 108.953125 86.210938 109.210938 86.179688 109.589844 86.136719 " fill-opacity="1" fill-rule="nonzero"/></g></g></g><g clip-path="url(#a81fecc73e)"><g clip-path="url(#ffd755723f)"><g clip-path="url(#885ca05316)"><path fill="#96031a" d="M 115.851562 123.167969 C 115.820312 122.957031 115.785156 122.746094 115.753906 122.542969 C 115.777344 122.707031 115.804688 122.875 115.832031 123.042969 C 115.839844 123.082031 115.84375 123.125 115.851562 123.167969 " fill-opacity="1" fill-rule="nonzero"/></g></g></g><g clip-path="url(#3446798d40)"><g clip-path="url(#0105103c44)"><g clip-path="url(#4f59a34e2b)"><path fill="#96031a" d="M 115.75 122.515625 C 115.738281 122.464844 115.734375 122.417969 115.722656 122.363281 C 115.734375 122.425781 115.742188 122.480469 115.753906 122.542969 C 115.75 122.535156 115.75 122.527344 115.75 122.515625 " fill-opacity="1" fill-rule="nonzero"/></g></g></g><g clip-path="url(#06a339cb6d)"><g clip-path="url(#65f09c0bea)"><g clip-path="url(#2ace17fdcb)"><path fill="#96031a" d="M 115.363281 120.261719 C 115.359375 120.25 115.359375 120.246094 115.355469 120.234375 C 115.433594 120.699219 115.511719 121.152344 115.363281 120.261719 " fill-opacity="1" fill-rule="nonzero"/></g></g></g><g clip-path="url(#edb6ad1663)"><g clip-path="url(#9a20ac8adb)"><g clip-path="url(#5cb1917f2f)"><path fill="#96031a" d="M 116.09375 124.597656 C 116.007812 124.066406 116.042969 124.296875 116.09375 124.597656 " fill-opacity="1" fill-rule="nonzero"/></g></g></g><g clip-path="url(#6046ddc48d)"><g clip-path="url(#acd399c9c7)"><g clip-path="url(#58943f86b6)"><path fill="#96031a" d="M 115.664062 122.003906 C 115.683594 122.121094 115.703125 122.242188 115.722656 122.363281 C 115.703125 122.242188 115.683594 122.121094 115.664062 122.003906 " fill-opacity="1" fill-rule="nonzero"/></g></g></g><g fill="#ffc300" fill-opacity="1"><g transform="translate(136.481831, 220.812086)"><g><path d="M 0.859375 -11.046875 L 3.59375 -11.046875 C 4.550781 -11.046875 5.242188 -10.785156 5.671875 -10.265625 C 6.109375 -9.753906 6.328125 -9 6.328125 -8 C 6.328125 -7.09375 6.09375 -6.390625 5.625 -5.890625 C 5.164062 -5.390625 4.492188 -5.140625 3.609375 -5.140625 L 2.40625 -5.140625 L 2.40625 0 L 0.859375 0 Z M 3.109375 -6.25 C 3.566406 -6.25 3.921875 -6.296875 4.171875 -6.390625 C 4.421875 -6.492188 4.597656 -6.664062 4.703125 -6.90625 C 4.816406 -7.15625 4.875 -7.515625 4.875 -7.984375 C 4.875 -8.546875 4.832031 -8.957031 4.75 -9.21875 C 4.664062 -9.476562 4.503906 -9.660156 4.265625 -9.765625 C 4.023438 -9.878906 3.644531 -9.9375 3.125 -9.9375 L 2.40625 -9.9375 L 2.40625 -6.25 Z M 3.109375 -6.25 "/></g></g></g><g fill="#ffc300" fill-opacity="1"><g transform="translate(146.686252, 220.812086)"><g><path d="M 3.6875 0.125 C 2.601562 0.125 1.828125 -0.179688 1.359375 -0.796875 C 0.890625 -1.410156 0.65625 -2.300781 0.65625 -3.46875 L 0.65625 -7.65625 C 0.65625 -8.800781 0.890625 -9.664062 1.359375 -10.25 C 1.835938 -10.84375 2.613281 -11.140625 3.6875 -11.140625 C 4.757812 -11.140625 5.53125 -10.84375 6 -10.25 C 6.46875 -9.65625 6.703125 -8.789062 6.703125 -7.65625 L 6.703125 -3.453125 C 6.703125 -2.304688 6.460938 -1.421875 5.984375 -0.796875 C 5.515625 -0.179688 4.75 0.125 3.6875 0.125 Z M 3.6875 -1.09375 C 4.257812 -1.09375 4.644531 -1.257812 4.84375 -1.59375 C 5.039062 -1.925781 5.140625 -2.4375 5.140625 -3.125 L 5.140625 -7.96875 C 5.140625 -8.632812 5.039062 -9.128906 4.84375 -9.453125 C 4.644531 -9.773438 4.257812 -9.9375 3.6875 -9.9375 C 3.101562 -9.9375 2.707031 -9.773438 2.5 -9.453125 C 2.300781 -9.128906 2.203125 -8.632812 2.203125 -7.96875 L 2.203125 -3.125 C 2.203125 -2.4375 2.300781 -1.925781 2.5 -1.59375 C 2.707031 -1.257812 3.101562 -1.09375 3.6875 -1.09375 Z M 3.6875 -1.09375 "/></g></g></g><g fill="#ffc300" fill-opacity="1"><g transform="translate(157.695468, 220.812086)"><g><path d="M 0.859375 -11.046875 L 3.59375 -11.046875 C 4.550781 -11.046875 5.242188 -10.785156 5.671875 -10.265625 C 6.109375 -9.753906 6.328125 -9 6.328125 -8 C 6.328125 -7.09375 6.09375 -6.390625 5.625 -5.890625 C 5.164062 -5.390625 4.492188 -5.140625 3.609375 -5.140625 L 2.40625 -5.140625 L 2.40625 0 L 0.859375 0 Z M 3.109375 -6.25 C 3.566406 -6.25 3.921875 -6.296875 4.171875 -6.390625 C 4.421875 -6.492188 4.597656 -6.664062 4.703125 -6.90625 C 4.816406 -7.15625 4.875 -7.515625 4.875 -7.984375 C 4.875 -8.546875 4.832031 -8.957031 4.75 -9.21875 C 4.664062 -9.476562 4.503906 -9.660156 4.265625 -9.765625 C 4.023438 -9.878906 3.644531 -9.9375 3.125 -9.9375 L 2.40625 -9.9375 L 2.40625 -6.25 Z M 3.109375 -6.25 "/></g></g></g><g fill="#ffc300" fill-opacity="1"><g transform="translate(167.899889, 220.812086)"><g/></g></g><g fill="#ffc300" fill-opacity="1"><g transform="translate(174.680513, 220.812086)"><g><path d="M 2.078125 -9.90625 L 0.203125 -9.90625 L 0.203125 -11.046875 L 5.421875 -11.046875 L 5.421875 -9.90625 L 3.609375 -9.90625 L 3.609375 0 L 2.078125 0 Z M 2.078125 -9.90625 "/></g></g></g><g fill="#ffc300" fill-opacity="1"><g transform="translate(183.971009, 220.812086)"><g><path d="M 0.859375 -11.046875 L 2.40625 -11.046875 L 2.40625 -6.28125 L 5.234375 -6.28125 L 5.234375 -11.046875 L 6.78125 -11.046875 L 6.78125 0 L 5.234375 0 L 5.234375 -5.171875 L 2.40625 -5.171875 L 2.40625 0 L 0.859375 0 Z M 0.859375 -11.046875 "/></g></g></g><g fill="#ffc300" fill-opacity="1"><g transform="translate(195.280323, 220.812086)"><g><path d="M 0.859375 -11.046875 L 5.140625 -11.046875 L 5.140625 -9.90625 L 2.40625 -9.90625 L 2.40625 -6.25 L 4.625 -6.25 L 4.625 -5.15625 L 2.40625 -5.15625 L 2.40625 -1.109375 L 5.171875 -1.109375 L 5.171875 0 L 0.859375 0 Z M 0.859375 -11.046875 "/></g></g></g><g fill="#ffc300" fill-opacity="1"><g transform="translate(204.488983, 220.812086)"><g/></g></g><g fill="#ffc300" fill-opacity="1"><g transform="translate(211.269607, 220.812086)"><g><path d="M 0.859375 -11.046875 L 5.125 -11.046875 L 5.125 -9.9375 L 2.40625 -9.9375 L 2.40625 -6.265625 L 4.515625 -6.265625 L 4.515625 -5.171875 L 2.40625 -5.171875 L 2.40625 0 L 0.859375 0 Z M 0.859375 -11.046875 "/></g></g></g><g fill="#ffc300" fill-opacity="1"><g transform="translate(220.260016, 220.812086)"><g><path d="M 3.703125 0.125 C 2.929688 0.125 2.328125 -0.03125 1.890625 -0.34375 C 1.460938 -0.65625 1.164062 -1.085938 1 -1.640625 C 0.84375 -2.191406 0.765625 -2.882812 0.765625 -3.71875 L 0.765625 -11.046875 L 2.234375 -11.046875 L 2.234375 -3.65625 C 2.234375 -2.820312 2.332031 -2.1875 2.53125 -1.75 C 2.726562 -1.3125 3.117188 -1.09375 3.703125 -1.09375 C 4.296875 -1.09375 4.691406 -1.3125 4.890625 -1.75 C 5.085938 -2.1875 5.1875 -2.820312 5.1875 -3.65625 L 5.1875 -11.046875 L 6.640625 -11.046875 L 6.640625 -3.71875 C 6.640625 -2.882812 6.554688 -2.191406 6.390625 -1.640625 C 6.234375 -1.085938 5.941406 -0.65625 5.515625 -0.34375 C 5.085938 -0.03125 4.484375 0.125 3.703125 0.125 Z M 3.703125 0.125 "/></g></g></g><g fill="#ffc300" fill-opacity="1"><g transform="translate(231.323797, 220.812086)"><g><path d="M 0.859375 -11.046875 L 1.90625 -11.046875 L 5.046875 -3.703125 L 5.046875 -11.046875 L 6.328125 -11.046875 L 6.328125 0 L 5.34375 0 L 2.171875 -7.546875 L 2.171875 0 L 0.859375 0 Z M 0.859375 -11.046875 "/></g></g></g></svg>